# Blender 4.0.2
# www.blender.org
o paru_1
v 0.482057 0.866816 -0.003399
v 0.471595 0.873112 -0.072098
v 0.441470 0.891242 -0.135898
v 0.395316 0.919018 -0.181796
v 0.338700 0.953091 -0.198996
v 0.278450 0.989351 -0.184723
v 0.221834 1.023424 -0.146266
v 0.175680 1.051200 -0.096710
v 0.145555 1.069330 -0.047372
v 0.135093 1.075626 -0.002919
v 0.145555 1.069330 0.037616
v 0.175680 1.051200 0.076005
v 0.221834 1.023424 0.110823
v 0.278450 0.989351 0.136965
v 0.338700 0.953091 0.147981
v 0.395316 0.919018 0.139020
v 0.441470 0.891242 0.108713
v 0.471595 0.873112 0.059458
v 0.643812 0.800578 -0.001608
v 0.627580 0.805430 -0.104481
v 0.580844 0.819399 -0.200196
v 0.509239 0.840802 -0.269148
v 0.421403 0.867057 -0.294931
v 0.327930 0.894996 -0.273291
v 0.240094 0.921251 -0.215314
v 0.168489 0.942653 -0.140898
v 0.121753 0.956623 -0.067165
v 0.105521 0.961475 -0.001000
v 0.121753 0.956623 0.059301
v 0.168489 0.942653 0.116581
v 0.240094 0.921251 0.168731
v 0.327930 0.894996 0.208010
v 0.421403 0.867057 0.224661
v 0.509239 0.840802 0.211368
v 0.580844 0.819399 0.166078
v 0.627580 0.805430 0.092416
v 0.787837 0.709948 -0.001972
v 0.767307 0.711927 -0.128184
v 0.708192 0.717625 -0.245614
v 0.617624 0.726355 -0.330208
v 0.506525 0.737064 -0.361841
v 0.388296 0.748461 -0.335292
v 0.277197 0.759170 -0.264161
v 0.186629 0.767900 -0.172863
v 0.277197 0.759170 0.207010
v 0.388296 0.748461 0.255201
v 0.506525 0.737064 0.275629
v 0.617624 0.726355 0.259320
v 0.147980 0.403848 -0.107782
v 0.708192 0.717625 0.203755
v 0.165212 0.364448 -0.121462
v 0.178016 0.319498 -0.131627
v 0.767307 0.711927 0.113383
v 0.898724 0.574098 -0.002251
v 0.185902 0.270723 -0.137886
v 0.188564 0.220000 -0.140000
v 0.874884 0.574554 -0.146273
v 0.806240 0.575867 -0.280275
v 0.185902 0.169277 -0.137886
v 0.701070 0.577879 -0.376807
v 0.178016 0.120502 -0.131627
v 0.572061 0.580346 -0.412903
v 0.165212 0.075552 -0.121462
v 0.434772 0.582972 -0.382608
v 0.147980 0.036152 -0.107782
v 0.305763 0.585439 -0.301439
v 0.135862 0.436182 -0.061634
v 0.159282 0.403848 -0.070263
v 0.178502 0.364448 -0.077344
v 0.434772 0.582972 0.291214
v 0.572061 0.580346 0.314526
v 0.701070 0.577879 0.295915
v 0.201578 0.270723 -0.085846
v 0.806239 0.575867 0.232509
v 0.204548 0.220000 -0.086940
v 0.201578 0.169277 -0.085846
v 0.874884 0.574554 0.129383
v 0.980720 0.401125 -0.002462
v 0.192784 0.120502 -0.082606
v 0.954433 0.401166 -0.159996
v 0.178502 0.075552 -0.077344
v 0.159282 0.036152 -0.070263
v 0.878742 0.401284 -0.306569
v 0.135862 0.003818 -0.061634
v 0.762776 0.401465 -0.412158
v 0.620523 0.401687 -0.451641
v 0.469140 0.401924 -0.418503
v 0.138891 0.436182 -0.030000
v 0.163137 0.403848 -0.030000
v 0.183035 0.364448 -0.030000
v 0.206926 0.270723 -0.030000
v 0.469140 0.401924 0.318535
v 0.210000 0.220000 -0.030000
v 0.620523 0.401687 0.344033
v 0.206926 0.169277 -0.030000
v 0.762776 0.401465 0.323677
v 0.197821 0.120502 -0.030000
v 0.878742 0.401284 0.254322
v 0.183035 0.075552 -0.030000
v 0.163137 0.036152 -0.030000
v 0.954433 0.401166 0.141521
v 1.031278 0.215625 -0.002603
v 0.138891 0.003818 -0.030000
v 1.003482 0.215625 -0.169196
v 0.923445 0.215625 -0.324199
v 0.650403 0.215625 -0.477612
v 0.135862 0.436182 0.001634
v 0.159282 0.403848 0.010263
v 0.178502 0.364448 0.017344
v 0.201578 0.270723 0.025846
v 0.204548 0.220000 0.026940
v 0.201578 0.169277 0.025846
v 0.192784 0.120502 0.022606
v 0.178502 0.075552 0.017344
v 0.159282 0.036152 0.010263
v 0.135862 0.003818 0.001634
v 0.800822 0.215625 0.342290
v 0.923445 0.215625 0.268947
v 1.003482 0.215625 0.149659
v 1.067390 0.028750 -0.002717
v 1.038516 0.028750 -0.176604
v 0.126982 0.436182 0.031113
v 0.955376 0.028750 -0.338392
v 0.827998 0.028750 -0.454940
v 0.147980 0.403848 0.047782
v 0.671746 0.028750 -0.498521
v 0.165212 0.364448 0.061462
v 0.185902 0.270723 0.077886
v 0.188564 0.220000 0.080000
v 0.185902 0.169277 0.077886
v 0.178016 0.120502 0.071627
v 0.165212 0.075552 0.061462
v 0.147980 0.036152 0.047782
v 0.126982 0.003818 0.031113
v 0.671746 0.028750 0.379744
v 0.827998 0.028750 0.357275
v 0.955376 0.028750 0.280721
v 1.038516 0.028750 0.156211
v 1.066132 -0.158125 -0.182607
v 0.144070 0.364448 0.099346
v 0.980545 -0.158125 -0.349895
v 0.160963 0.270723 0.122574
v 0.849419 -0.158125 -0.470406
v 0.163137 0.220000 0.125563
v 0.688570 -0.158125 -0.515469
v 0.160963 0.169277 0.122574
v 0.517397 -0.158125 -0.477648
v 0.154525 0.120502 0.113722
v 0.144070 0.075552 0.099346
v 0.130000 0.036152 0.080000
v 0.356547 -0.158125 0.294902
v 0.517397 -0.158125 0.363552
v 0.849419 -0.158125 0.369420
v 0.980545 -0.158125 0.290264
v 1.066132 -0.158125 0.161522
v 1.115824 -0.345000 -0.002868
v 1.085504 -0.345000 -0.186428
v 0.998201 -0.345000 -0.357216
v 0.864446 -0.345000 -0.480248
v 0.700371 -0.345000 -0.526254
v 0.525766 -0.345000 -0.487641
v 0.525766 -0.345000 0.371158
v 0.700371 -0.345000 0.400869
v 0.864446 -0.345000 0.377149
v 0.998201 -0.345000 0.296337
v 1.085504 -0.345000 0.164901
v 1.116248 -0.535172 -0.002865
v 1.085916 -0.535073 -0.186194
v 0.998577 -0.534790 -0.356768
v 0.864766 -0.534356 -0.479646
v 0.700622 -0.533824 -0.525593
v 0.525944 -0.533257 -0.487029
v 0.525944 -0.533257 0.370693
v 0.864766 -0.534356 0.376676
v 0.998577 -0.534790 0.295966
v 1.085916 -0.535073 0.164694
v 1.086509 -0.753585 -0.002757
v 1.057064 -0.752546 -0.179177
v 0.972281 -0.749552 -0.343322
v 0.842386 -0.744965 -0.461569
v 0.683046 -0.739338 -0.505785
v 0.513480 -0.733351 -0.468674
v 0.354139 -0.727724 -0.369247
v 0.224244 -0.723137 0.199929
v 0.354139 -0.727724 0.289361
v 0.513479 -0.733351 0.356722
v 0.683046 -0.739338 0.385277
v 0.842386 -0.744965 0.362480
v 0.972281 -0.749552 0.284811
v 1.057064 -0.752546 0.158487
v 0.980300 -1.051612 -0.002433
v 0.954025 -1.047254 -0.158125
v 0.878370 -1.034708 -0.302985
v 0.762460 -1.015485 -0.407340
v 0.620274 -0.991906 -0.446361
v 0.468964 -0.966813 -0.413610
v 0.326779 -0.943233 -0.325865
v 0.210868 -0.924011 -0.213241
v 0.135213 -0.911465 -0.101650
v 0.108938 -0.907107 -0.001513
v 0.135213 -0.911465 0.089748
v 0.210868 -0.924011 0.176439
v 0.326779 -0.943233 0.255364
v 0.468964 -0.966813 0.314811
v 0.620274 -0.991906 0.340011
v 0.762460 -1.015485 0.319893
v 0.878370 -1.034708 0.251349
v 0.954025 -1.047254 0.139867
v 0.773691 -1.302357 -0.005411
v 0.755308 -1.295561 -0.113535
v 0.702378 -1.275996 -0.213946
v 0.621285 -1.246019 -0.286181
v 0.521809 -1.209248 -0.313251
v 0.415949 -1.170116 -0.290792
v 0.316473 -1.133344 -0.230273
v 0.235380 -1.103368 -0.152280
v 0.182450 -1.083802 -0.074624
v 0.164068 -1.077007 -0.004653
v 0.182450 -1.083802 0.059151
v 0.235380 -1.103368 0.119575
v 0.316473 -1.133344 0.174375
v 0.415949 -1.170116 0.215517
v 0.521809 -1.209248 0.232852
v 0.621285 -1.246019 0.218747
v 0.702378 -1.275996 0.171046
v 0.755308 -1.295562 0.093522
v 0.558913 0.832204 -0.001744
v 0.452414 0.884605 -0.034403
v 0.545364 0.838603 -0.089458
v 0.639712 0.801803 -0.052838
v 0.434453 0.895813 -0.093592
v 0.506353 0.857030 -0.171047
v 0.607744 0.811359 -0.154436
v 0.400696 0.916877 -0.142872
v 0.446583 0.885261 -0.229809
v 0.547663 0.829317 -0.239209
v 0.355215 0.945256 -0.171238
v 0.373265 0.919892 -0.251790
v 0.466716 0.853512 -0.288019
v 0.303497 0.977528 -0.172279
v 0.295242 0.956745 -0.233373
v 0.374667 0.881026 -0.289628
v 0.251778 1.009799 -0.148081
v 0.221924 0.991375 -0.183989
v 0.282617 0.908540 -0.247666
v 0.206297 1.038179 -0.108239
v 0.162154 1.019606 -0.120565
v 0.201670 0.932735 -0.178928
v 0.172541 1.059243 -0.064143
v 0.123142 1.038033 -0.057678
v 0.141589 0.950694 -0.103290
v 0.154579 1.070451 -0.022985
v 0.109594 1.044432 -0.001211
v 0.109621 0.960249 -0.033134
v 0.154579 1.070451 0.013979
v 0.123142 1.038033 0.050255
v 0.109621 0.960249 0.029651
v 0.172541 1.059243 0.048458
v 0.162154 1.019606 0.099121
v 0.141589 0.950694 0.088321
v 0.206297 1.038179 0.080841
v 0.221924 0.991375 0.143585
v 0.201670 0.932735 0.143693
v 0.251778 1.009799 0.108139
v 0.295242 0.956745 0.177059
v 0.282617 0.908540 0.190596
v 0.303497 0.977528 0.124999
v 0.373265 0.919892 0.191237
v 0.374667 0.881026 0.219710
v 0.355215 0.945256 0.126221
v 0.446583 0.885261 0.179886
v 0.466716 0.853512 0.222008
v 0.400696 0.916877 0.108976
v 0.506353 0.857030 0.141258
v 0.547663 0.829317 0.192603
v 0.434453 0.895813 0.073760
v 0.545364 0.838603 0.078439
v 0.607744 0.811359 0.132369
v 0.452414 0.884605 0.024059
v 0.639712 0.801803 0.047311
v 0.720445 0.760992 -0.001802
v 0.701926 0.764236 -0.117151
v 0.782652 0.710448 -0.064825
v 0.648603 0.773578 -0.224474
v 0.742217 0.714345 -0.189472
v 0.566909 0.787890 -0.301787
v 0.666224 0.721671 -0.293477
v 0.466695 0.805446 -0.330697
v 0.563839 0.731540 -0.353361
v 0.360050 0.824130 -0.306433
v 0.447410 0.742762 -0.355335
v 0.259836 0.841686 -0.241425
v 0.330982 0.753985 -0.303852
v 0.228597 0.763854 -0.219520
v 0.259836 0.841686 0.189193
v 0.360050 0.824130 0.233235
v 0.330982 0.753985 0.233836
v 0.466695 0.805446 0.251906
v 0.447410 0.742762 0.269554
v 0.566909 0.787890 0.237000
v 0.563839 0.731540 0.272374
v 0.648603 0.773578 0.186218
v 0.666224 0.721671 0.236299
v 0.701926 0.764236 0.103624
v 0.742217 0.714345 0.162399
v 0.782652 0.710448 0.058044
v 0.846945 0.647523 -0.002120
v 0.824650 0.648576 -0.137813
v 0.892703 0.574213 -0.073973
v 0.760456 0.651609 -0.264065
v 0.845749 0.575111 -0.216210
v 0.662105 0.656256 -0.355014
v 0.757505 0.576799 -0.334893
v 0.541459 0.661956 -0.389023
v 0.638614 0.579073 -0.403227
v 0.413070 0.668021 -0.360479
v 0.503417 0.581659 -0.405479
v 0.368219 0.584245 -0.346732
v 0.249328 0.586519 -0.250499
v 0.194073 0.678368 0.153774
v 0.292424 0.673721 0.222561
v 0.413070 0.668021 0.274372
v 0.541459 0.661956 0.296335
v 0.503417 0.581659 0.307594
v 0.662105 0.656256 0.278800
v 0.638614 0.579073 0.310811
v 0.760456 0.651609 0.219062
v 0.757505 0.576799 0.269645
v 0.824650 0.648576 0.121900
v 0.845749 0.575111 0.185317
v 0.892703 0.574213 0.066235
v 0.943705 0.490763 -0.002365
v 0.918523 0.490917 -0.153719
v 0.974081 0.401135 -0.080913
v 0.846012 0.491362 -0.294543
v 0.922307 0.401216 -0.236495
v 0.734920 0.492043 -0.395989
v 0.825004 0.401368 -0.366311
v 0.598646 0.492879 -0.433923
v 0.693908 0.401573 -0.441056
v 0.453626 0.493769 -0.402085
v 0.544831 0.401806 -0.443520
v 0.395754 0.402038 -0.379261
v 0.317351 0.494604 0.248249
v 0.453626 0.493769 0.306039
v 0.598646 0.492879 0.330537
v 0.544831 0.401806 0.336451
v 0.734920 0.492043 0.310979
v 0.693908 0.401573 0.339970
v 0.846012 0.491362 0.244345
v 0.825004 0.401368 0.294942
v 0.918523 0.490917 0.135969
v 0.922307 0.401216 0.202703
v 0.974081 0.401135 0.072449
v 0.981894 0.308896 -0.165006
v 1.024258 0.215625 -0.085566
v 0.903770 0.308911 -0.316168
v 0.969512 0.215625 -0.250094
v 0.784077 0.308933 -0.425063
v 0.637252 0.308961 -0.465782
v 0.728001 0.215625 -0.466419
v 0.728001 0.215625 0.359520
v 0.866623 0.215625 0.311903
v 0.969512 0.215625 0.214359
v 1.024258 0.215625 0.076616
v 1.050449 0.122187 -0.002662
v 1.022081 0.122187 -0.173046
v 1.060098 0.028750 -0.089312
v 1.003229 0.028750 -0.261043
v 0.896351 0.028750 -0.404335
v 0.752354 0.028750 -0.486838
v 0.588606 0.028750 -0.489558
v 0.588606 0.028750 0.371375
v 0.752354 0.028750 0.375259
v 0.940397 0.122187 0.275066
v 0.896351 0.028750 0.325557
v 1.022081 0.122187 0.153065
v 1.003229 0.028750 0.223743
v 1.060098 0.028750 0.079970
v 1.088348 -0.158125 -0.092348
v 1.029806 -0.158125 -0.269917
v 0.919783 -0.158125 -0.418080
v 0.771549 -0.158125 -0.503388
v 0.602983 -0.158125 -0.506200
v 0.434418 -0.158125 0.333116
v 0.602983 -0.158125 0.384000
v 0.771549 -0.158125 0.388017
v 0.919783 -0.158125 0.336625
v 1.029806 -0.158125 0.231350
v 1.088348 -0.158125 0.082688
v 1.107592 -0.251563 -0.002845
v 1.077518 -0.251563 -0.184898
v 1.108166 -0.345000 -0.094280
v 0.990923 -0.251563 -0.354284
v 1.048450 -0.345000 -0.275565
v 0.858252 -0.251563 -0.476307
v 0.936221 -0.345000 -0.426828
v 0.695506 -0.251563 -0.521934
v 0.785014 -0.345000 -0.513920
v 0.522316 -0.251563 -0.483639
v 0.613069 -0.345000 -0.516791
v 0.359571 -0.251563 -0.381037
v 0.441123 -0.345000 0.340086
v 0.695506 -0.251563 0.397579
v 0.613069 -0.345000 0.392034
v 0.858252 -0.251563 0.374054
v 0.785014 -0.345000 0.396135
v 0.990923 -0.251563 0.293905
v 0.936221 -0.345000 0.343668
v 1.077518 -0.251563 0.163548
v 1.048450 -0.345000 0.236190
v 1.108166 -0.345000 0.084418
v 1.118744 -0.438850 -0.002876
v 1.088338 -0.438837 -0.186925
v 1.108588 -0.535147 -0.094162
v 1.000784 -0.438802 -0.358168
v 1.048846 -0.534953 -0.275219
v 0.866644 -0.438748 -0.481529
v 0.936570 -0.534589 -0.426292
v 0.702098 -0.438681 -0.527657
v 0.785301 -0.534098 -0.513276
v 0.526991 -0.438610 -0.488941
v 0.613283 -0.533540 -0.516143
v 0.362444 -0.438544 -0.385215
v 0.441266 -0.532982 -0.441362
v 0.228304 -0.438489 -0.252079
v 0.526991 -0.438610 0.372148
v 0.441266 -0.532982 0.339659
v 0.702098 -0.438681 0.401938
v 0.866644 -0.438748 0.378155
v 0.936570 -0.534589 0.343237
v 1.088337 -0.438837 0.165341
v 1.048847 -0.534953 0.235894
v 1.108588 -0.535147 0.084312
v 1.107433 -0.637497 -0.002830
v 1.077364 -0.637133 -0.183913
v 1.079072 -0.753323 -0.090613
v 0.990782 -0.636086 -0.352398
v 1.021079 -0.751275 -0.264846
v 0.858132 -0.634482 -0.473771
v 0.912089 -0.747426 -0.410226
v 0.695412 -0.632514 -0.519156
v 0.765246 -0.742241 -0.493931
v 0.522249 -0.630419 -0.481064
v 0.598263 -0.736345 -0.496690
v 0.359530 -0.628451 -0.379009
v 0.431279 -0.730448 -0.424728
v 0.226879 -0.626847 -0.248017
v 0.284436 -0.725263 -0.306848
v 0.226879 -0.626847 0.205214
v 0.175446 -0.721414 0.151464
v 0.359530 -0.628451 0.297011
v 0.284436 -0.725263 0.246422
v 0.522249 -0.630419 0.366152
v 0.431279 -0.730448 0.326858
v 0.695412 -0.632514 0.395462
v 0.598263 -0.736345 0.376786
v 0.858132 -0.634482 0.372062
v 0.765246 -0.742241 0.380727
v 0.990782 -0.636086 0.292340
v 0.912089 -0.747426 0.330301
v 1.077364 -0.637133 0.162677
v 1.021079 -0.751275 0.227003
v 1.079072 -0.753323 0.081135
v 1.046467 -0.890916 -0.002630
v 1.018217 -0.888566 -0.170931
v 0.973664 -1.050511 -0.079967
v 0.936875 -0.881800 -0.327523
v 0.921915 -1.041929 -0.233730
v 0.812253 -0.871434 -0.440328
v 0.824658 -1.025800 -0.362029
v 0.659380 -0.858718 -0.482510
v 0.693625 -1.004070 -0.435900
v 0.496697 -0.845186 -0.447107
v 0.544619 -0.979359 -0.438335
v 0.343824 -0.832469 -0.352255
v 0.395613 -0.954649 -0.374827
v 0.219201 -0.822103 -0.230510
v 0.264580 -0.932919 -0.270797
v 0.167323 -0.916790 -0.156323
v 0.115574 -0.908208 -0.050146
v 0.115574 -0.908208 0.044875
v 0.219201 -0.822103 0.190728
v 0.167323 -0.916790 0.133669
v 0.343824 -0.832469 0.276045
v 0.264580 -0.932918 0.217470
v 0.496697 -0.845186 0.340306
v 0.395613 -0.954649 0.288456
v 0.659380 -0.858718 0.367548
v 0.544619 -0.979359 0.332518
v 0.812253 -0.871434 0.345799
v 0.693625 -1.004070 0.335996
v 0.936876 -0.881800 0.271705
v 0.824658 -1.025800 0.291494
v 1.018217 -0.888566 0.151194
v 0.921915 -1.041929 0.200333
v 0.973664 -1.050511 0.071602
v 0.883229 -1.217370 -0.002727
v 0.860124 -1.210815 -0.139037
v 0.725400 -1.306620 -0.054326
v 0.793597 -1.191938 -0.265825
v 0.693694 -1.294440 -0.147652
v 0.691672 -1.163018 -0.357142
v 0.634107 -1.271549 -0.225353
v 0.566642 -1.127542 -0.391300
v 0.553825 -1.240710 -0.270078
v 0.433588 -1.089790 -0.362682
v 0.462532 -1.205639 -0.271720
v 0.308559 -1.054314 -0.285941
v 0.371239 -1.170569 -0.233568
v 0.206633 -1.025394 -0.187381
v 0.290957 -1.139729 -0.170750
v 0.140107 -1.006518 -0.089652
v 0.231370 -1.116839 -0.101221
v 0.117002 -0.999962 -0.001899
v 0.199664 -1.104659 -0.036323
v 0.140107 -1.006518 0.078083
v 0.199664 -1.104659 0.021964
v 0.206633 -1.025394 0.154024
v 0.231370 -1.116839 0.076332
v 0.308559 -1.054314 0.223121
v 0.290957 -1.139729 0.127392
v 0.433588 -1.089790 0.275140
v 0.371239 -1.170569 0.170435
v 0.566642 -1.127542 0.297171
v 0.462532 -1.205639 0.197018
v 0.691672 -1.163018 0.279531
v 0.553825 -1.240709 0.198943
v 0.793597 -1.191939 0.219501
v 0.634107 -1.271549 0.171751
v 0.860124 -1.210815 0.121878
v 0.693694 -1.294440 0.116222
v 0.725400 -1.306620 0.037856
v 0.553158 0.835144 -0.045145
v 0.526695 0.847663 -0.131057
v 0.476959 0.871192 -0.202731
v 0.409951 0.902892 -0.243997
v 0.333753 0.938940 -0.245369
v 0.257554 0.974988 -0.209912
v 0.190546 1.006688 -0.151809
v 0.140811 1.030216 -0.087845
v 0.114348 1.042736 -0.028490
v 0.114348 1.042736 0.024644
v 0.140811 1.030217 0.074288
v 0.190546 1.006688 0.121124
v 0.257554 0.974988 0.160783
v 0.333753 0.938940 0.185391
v 0.409951 0.902892 0.187321
v 0.476959 0.871192 0.162444
v 0.526694 0.847663 0.111496
v 0.553158 0.835144 0.039554
v 0.715768 0.761811 -0.059245
v 0.679294 0.768201 -0.173164
v 0.610747 0.780210 -0.268218
v 0.518393 0.796389 -0.322947
v 0.413372 0.814788 -0.324751
v 0.308351 0.833187 -0.277700
v 0.215998 0.849366 0.161118
v 0.308351 0.833187 0.213709
v 0.413372 0.814788 0.246354
v 0.518393 0.796389 0.248930
v 0.610747 0.780210 0.215960
v 0.679294 0.768201 0.148421
v 0.715768 0.761811 0.053048
v 0.841314 0.647789 -0.069695
v 0.797404 0.649863 -0.203706
v 0.714881 0.653762 -0.315524
v 0.603697 0.659015 -0.379906
v 0.477264 0.664988 -0.382028
v 0.350831 0.670962 -0.326678
v 0.239648 0.676215 0.189535
v 0.350831 0.670962 0.251402
v 0.477264 0.664988 0.289804
v 0.603697 0.659015 0.292835
v 0.714881 0.653762 0.254050
v 0.797404 0.649863 0.174599
v 0.841314 0.647789 0.062405
v 0.937345 0.490801 -0.077739
v 0.887747 0.491106 -0.227217
v 0.794533 0.491677 -0.351941
v 0.668947 0.492448 -0.423753
v 0.526136 0.493324 -0.426121
v 0.383324 0.494200 0.280418
v 0.526136 0.493324 0.323252
v 0.668947 0.492448 0.326633
v 0.794533 0.491677 0.283371
v 0.887747 0.491106 0.194751
v 0.937345 0.490801 0.069607
v 0.948736 0.308902 -0.243899
v 0.848305 0.308921 -0.377781
v 0.712996 0.308947 -0.454866
v 0.559128 0.308976 -0.457407
v 1.043285 0.122188 -0.087513
v 0.987412 0.122188 -0.255785
v 0.882405 0.122188 -0.396190
v 0.987411 0.122188 0.219236
v 1.043284 0.122188 0.078359
v 1.099997 -0.251563 -0.093506
v 1.040764 -0.251563 -0.273303
v 0.929444 -0.251563 -0.423324
v 0.779463 -0.251563 -0.509702
v 0.608911 -0.251563 -0.512550
v 0.438359 -0.251563 -0.438289
v 0.608911 -0.251563 0.388817
v 0.779463 -0.251563 0.392883
v 0.929444 -0.251563 0.340847
v 1.040764 -0.251563 0.234251
v 1.111065 -0.438847 -0.094531
v 1.051177 -0.438822 -0.276299
v 0.938625 -0.438777 -0.427966
v 0.786984 -0.438715 -0.515291
v 0.614544 -0.438646 -0.518169
v 0.442104 -0.438576 -0.443095
v 0.290463 -0.438515 -0.320117
v 0.614544 -0.438646 0.393080
v 0.786984 -0.438715 0.397191
v 0.938625 -0.438777 0.344584
v 1.051177 -0.438822 0.236820
v 1.111065 -0.438847 0.084643
v 1.099838 -0.637405 -0.093008
v 1.040616 -0.636689 -0.271848
v 0.929313 -0.635343 -0.421071
v 0.779356 -0.633529 -0.506989
v 0.608831 -0.631467 -0.509821
v 0.438306 -0.629404 -0.435956
v 0.288348 -0.627591 -0.314960
v 0.177046 -0.626244 -0.181817
v 0.288348 -0.627591 0.252937
v 0.438306 -0.629404 0.335499
v 0.608831 -0.631467 0.386746
v 0.779356 -0.633529 0.390792
v 0.929313 -0.635343 0.339032
v 1.040616 -0.636689 0.233004
v 1.099838 -0.637405 0.083280
v 1.039332 -0.890323 -0.086443
v 0.983693 -0.885695 -0.252659
v 0.879126 -0.876997 -0.391348
v 0.738244 -0.865278 -0.471202
v 0.578038 -0.851952 -0.473834
v 0.417833 -0.838625 -0.405183
v 0.276950 -0.826907 -0.292727
v 0.276950 -0.826907 0.235082
v 0.417833 -0.838625 0.311817
v 0.578038 -0.851952 0.359447
v 0.738244 -0.865278 0.363207
v 0.879126 -0.876997 0.315101
v 0.983693 -0.885695 0.216557
v 1.039332 -0.890323 0.077401
v 0.873695 -1.216615 -0.070181
v 0.828561 -1.203785 -0.203696
v 0.743735 -1.179671 -0.315083
v 0.629450 -1.147183 -0.379214
v 0.499490 -1.110240 -0.381347
v 0.369529 -1.073296 -0.326245
v 0.255244 -1.040808 -0.235948
v 0.170418 -1.016695 -0.136542
v 0.125284 -1.003864 -0.044297
v 0.125284 -1.003864 0.038279
v 0.170418 -1.016695 0.115431
v 0.255244 -1.040808 0.188219
v 0.369529 -1.073296 0.249853
v 0.499490 -1.110240 0.288096
v 0.629450 -1.147183 0.291095
v 0.743735 -1.179671 0.252434
v 0.828561 -1.203785 0.173255
v 0.873695 -1.216615 0.061450
v 0.288311 0.996385 -0.012937
v 0.443552 -1.253354 -0.020661
v 0.134932 0.421190 -0.102041
v 0.143140 0.403848 -0.116454
v 0.108715 0.458918 -0.001495
v 0.109593 0.459804 -0.008044
v 0.112549 0.459062 -0.030000
v 0.115212 0.455118 -0.049617
v 0.117134 0.453023 -0.054734
v 0.128686 0.436182 -0.085457
v 0.132451 0.427760 -0.095455
v 0.130312 0.403848 0.079441
v 0.117101 0.436182 0.048820
v 0.115325 0.439010 0.044709
v 0.111634 0.451575 0.018929
v 0.155668 0.364448 -0.138563
v 0.164926 0.319498 -0.155083
v 0.170156 0.274142 -0.164672
v 0.172474 0.220000 -0.168833
v 0.170593 0.270723 -0.165319
v 0.131356 0.400050 0.081865
v 0.135452 0.384120 0.091368
v 0.142346 0.364448 0.101166
v 0.158677 0.270723 0.124986
v 0.160584 0.220000 0.128257
v 0.171468 0.199911 -0.167908
v 0.170168 0.169277 -0.166081
v 0.138690 0.029648 -0.113506
v 0.164183 0.120502 -0.156416
v 0.154618 0.075552 -0.140446
v 0.141816 0.036152 -0.118826
v 0.138407 0.068697 0.099373
v 0.129995 0.036152 0.080005
v 0.129983 0.036120 0.079976
v 0.158146 0.169277 0.125546
v 0.151494 0.120502 0.116920
v 0.140872 0.075552 0.102721
v 0.128440 0.003818 -0.086273
v 0.117232 -0.012524 -0.056455
v 0.131657 0.011017 -0.094824
v 0.109899 -0.018011 -0.001705
v 0.110696 -0.018812 -0.007638
v 0.116996 -0.013147 -0.054683
v 0.113697 -0.018065 -0.030000
v 0.116995 0.003818 0.049009
v 0.117183 0.004819 0.050352
v 0.112927 -0.010279 0.019955
v 0.866608 0.215701 -0.387368
v 0.793714 0.255235 -0.431276
v 0.866705 0.215625 -0.387284
v 0.725480 0.231305 -0.464478
v 0.717694 0.279732 -0.458483
v 0.646924 0.240314 -0.474483
v 0.640117 0.288625 -0.468359
v 0.774124 0.215625 -0.447063
v 0.568226 0.233406 -0.466812
v 0.562399 0.281808 -0.460788
v 0.485833 0.260644 -0.437283
v 0.411826 0.226953 -0.399865
v 0.970212 0.122188 -0.283511
v 0.933067 0.162592 -0.328385
v 1.000106 0.047197 -0.260005
v 0.991434 0.098426 -0.257122
v 0.941984 0.112289 -0.332297
v 1.012225 0.028750 -0.239518
v 1.037206 0.028750 -0.179739
v 0.929882 0.122188 -0.343290
v 0.874990 0.166090 -0.392049
v 0.802244 0.206417 -0.436836
v 0.490648 0.211936 -0.442966
v 0.415355 0.177560 -0.404788
v 0.344261 0.133332 -0.355667
v 0.341618 0.183334 -0.351422
v 0.277278 0.133056 -0.295582
v 0.279048 0.082265 -0.298952
v 0.220688 0.079028 -0.235578
v 1.072896 -0.051418 -0.090703
v 1.047091 -0.026200 -0.178489
v 1.038943 0.026012 -0.176698
v 1.080695 -0.104493 -0.091536
v 1.093410 -0.158125 -0.031972
v 1.091893 -0.130569 -0.002797
v 0.221860 0.027576 -0.238214
v 0.174681 -0.027978 -0.176515
v 0.174039 0.024252 -0.174743
v 0.139073 -0.029705 -0.114818
v 0.139400 -0.082526 -0.115933
v 0.117559 -0.134969 -0.057690
v 0.117424 -0.081600 -0.057183
v 0.110072 -0.131521 -0.001740
v 1.093167 -0.158125 0.027807
v 1.099153 -0.184374 -0.002819
v 0.110146 -0.185334 -0.001754
v 0.117787 -0.234050 0.052351
v 0.117667 -0.179885 0.051975
v 0.140182 -0.227274 0.104605
v 0.140411 -0.281656 0.105223
v 0.177577 -0.328606 0.157367
v 0.177210 -0.274101 0.156612
v 0.227659 -0.319977 0.207562
v 1.079957 -0.345000 0.175574
v 1.048885 -0.345000 0.235353
v 1.084672 -0.335263 0.164760
v 1.080011 -0.280727 0.163970
v 1.086520 -0.251563 0.131580
v 1.094571 -0.208039 0.083242
v 1.101043 -0.251563 0.071801
v 1.100942 -0.262371 0.083806
v 0.228052 -0.374371 0.208194
v 0.290345 -0.418254 0.256930
v 0.290028 -0.364072 0.256534
v 0.362171 -0.404634 0.301583
v 0.362308 -0.458496 0.301624
v 0.441619 -0.493248 0.340220
v 0.442091 -0.440099 0.340971
v 0.526081 -0.520857 0.370883
v 0.526668 -0.467767 0.371700
v 0.613911 -0.486322 0.392307
v 0.701237 -0.494169 0.401021
v 0.585326 -0.533449 0.384868
v 0.826788 -0.534233 0.385738
v 0.786080 -0.489968 0.396356
v 0.864926 -0.526187 0.376803
v 0.865969 -0.473101 0.377624
v 0.945277 -0.438780 0.339505
v 0.999725 -0.400330 0.296803
v 0.937388 -0.496447 0.343773
v 0.938528 -0.443295 0.344521
v 1.000428 -0.454279 0.296940
v 1.015298 -0.438808 0.279758
v 1.050046 -0.399911 0.236559
v 1.048472 -0.345758 0.236195
v 0.613026 -0.539209 0.391265
v 0.699936 -0.546822 0.399720
v 0.784783 -0.542766 0.395215
v 1.005617 0.320000 -0.002529
v 0.998791 0.320000 -0.083141
v 0.994599 0.320000 -0.100000
v 0.998058 0.308893 -0.100000
v 1.005065 0.280000 -0.100000
v 1.009015 0.280000 -0.084103
v 1.015919 0.280000 -0.002559
v 0.169266 0.320000 0.138988
v 0.152404 0.320000 0.115676
v 0.214067 0.320000 0.183459
v 0.170049 0.280000 0.140586
v 0.215357 0.280000 0.185570
v 0.157505 0.280000 0.123247
v 0.269328 0.320000 0.226122
v 0.333319 0.320000 0.265521
v 0.271243 0.280000 0.228724
v 0.335960 0.280000 0.268578
v 0.404136 0.320000 0.299926
v 0.479598 0.320000 0.327327
v 0.407581 0.280000 0.303381
v 0.483900 0.280000 0.331099
v 0.557430 0.320000 0.345735
v 0.635260 0.320000 0.353523
v 0.562616 0.280000 0.349721
v 0.641333 0.280000 0.357602
v 0.710718 0.320000 0.349345
v 0.781529 0.320000 0.332599
v 0.717650 0.280000 0.353377
v 0.789269 0.280000 0.336440
v 0.845513 0.320000 0.303070
v 0.900765 0.320000 0.261329
v 0.853984 0.280000 0.306572
v 0.909868 0.280000 0.264350
v 0.945558 0.320000 0.208286
v 0.978589 0.320000 0.145419
v 0.955173 0.280000 0.210695
v 0.988582 0.280000 0.147101
v 0.998791 0.320000 0.074445
v 1.009015 0.280000 0.075306
v 0.187544 0.319498 -0.100000
v 0.187367 0.320000 -0.100000
v 0.192624 0.320000 -0.082547
v 0.195456 0.280000 -0.100000
v 0.199906 0.280000 -0.085230
v 0.197655 0.320000 -0.030000
v 0.205194 0.280000 -0.030000
v 0.192624 0.320000 0.022547
v 0.199906 0.280000 0.025230
v 0.177873 0.320000 0.071513
v 0.184402 0.280000 0.076696
v 0.154408 0.320000 0.113561
v 0.159739 0.280000 0.120891
s 0
f 1 227 534 228
f 228 534 229 2
f 280 19 230 20 229 534 227 551 277 36
f 2 229 535 231
f 231 535 232 3
f 535 233 21 232
f 229 20 233 535
f 3 232 536 234
f 234 536 235 4
f 536 236 22 235
f 232 21 236 536
f 4 235 537 237
f 237 537 238 5
f 537 239 23 238
f 235 22 239 537
f 5 238 538 240
f 240 538 241 6
f 538 242 24 241
f 238 23 242 538
f 6 241 539 243
f 243 539 244 7
f 539 245 25 244
f 241 24 245 539
f 7 244 540 246
f 246 540 247 8
f 540 248 26 247
f 244 25 248 540
f 8 247 541 249
f 249 541 250 9
f 541 251 27 250
f 247 26 251 541
f 9 250 542 252
f 252 542 253 10
f 542 254 28 253
f 250 27 254 542
f 10 253 543 255
f 255 543 256 11
f 543 257 29 256
f 253 28 257 543
f 11 256 544 258
f 258 544 259 12
f 544 260 30 259
f 256 29 260 544
f 12 259 545 261
f 261 545 262 13
f 545 263 31 262
f 259 30 263 545
f 13 262 546 264
f 264 546 265 14
f 546 266 32 265
f 262 31 266 546
f 14 265 547 267
f 267 547 268 15
f 547 269 33 268
f 265 32 269 547
f 15 268 548 270
f 270 548 271 16
f 548 272 34 271
f 268 33 272 548
f 16 271 549 273
f 273 549 274 17
f 549 275 35 274
f 271 34 275 549
f 17 274 550 276
f 276 550 277 18
f 550 278 36 277
f 274 35 278 550
f 18 277 551 279
f 279 551 227 1
f 572 583 345 70 322
f 19 281 552 230
f 230 552 282 20
f 552 283 38 282
f 281 37 283 552
f 20 282 553 233
f 233 553 284 21
f 553 285 39 284
f 282 38 285 553
f 21 284 554 236
f 236 554 286 22
f 554 287 40 286
f 284 39 287 554
f 22 286 555 239
f 239 555 288 23
f 555 289 41 288
f 286 40 289 555
f 23 288 556 242
f 242 556 290 24
f 556 291 42 290
f 288 41 291 556
f 24 290 557 245
f 245 557 292 25
f 557 293 43 292
f 290 42 293 557
f 448 627 750 749 426
f 87 724 725 343
f 481 200 759 754
f 371 126 106 361
f 372 384 147 736 722
f 753 199 481 754
f 126 372 722 719 106
f 741 614 426 749
f 451 484 202 483 184
f 136 376 363 117
f 263 558 295 31
f 374 387 153 136
f 31 295 559 266
f 266 559 296 32
f 559 297 46 296
f 295 45 297 559
f 32 296 560 269
f 269 560 298 33
f 560 299 47 298
f 296 46 299 560
f 33 298 561 272
f 272 561 300 34
f 561 301 48 300
f 298 47 301 561
f 34 300 562 275
f 275 562 302 35
f 562 303 50 302
f 300 48 303 562
f 35 302 563 278
f 278 563 304 36
f 563 305 53 304
f 302 50 305 563
f 36 304 564 280
f 280 564 281 19
f 564 306 37 281
f 304 53 306 564
f 37 307 565 283
f 283 565 308 38
f 565 309 57 308
f 307 54 309 565
f 38 308 566 285
f 285 566 310 39
f 566 311 58 310
f 308 57 311 566
f 39 310 567 287
f 287 567 312 40
f 567 313 60 312
f 310 58 313 567
f 40 312 568 289
f 289 568 314 41
f 568 315 62 314
f 312 60 315 568
f 41 314 569 291
f 291 569 316 42
f 569 317 64 316
f 314 62 317 569
f 42 316 570 293
f 740 742 44 294 319
f 316 64 318 570
f 145 384 372 126
f 137 154 389 378
f 45 321 572 297
f 297 572 322 46
f 388 154 137 376
f 403 162 152 385
f 46 322 573 299
f 299 573 323 47
f 573 324 71 323
f 322 70 324 573
f 47 323 574 301
f 301 574 325 48
f 574 326 72 325
f 323 71 326 574
f 48 325 575 303
f 303 575 327 50
f 575 328 74 327
f 325 72 328 575
f 50 327 576 305
f 305 576 329 53
f 576 330 77 329
f 327 74 330 576
f 53 329 577 306
f 306 577 307 37
f 577 331 54 307
f 329 77 331 577
f 54 332 578 309
f 309 578 333 57
f 578 334 80 333
f 332 78 334 578
f 57 333 579 311
f 311 579 335 58
f 579 336 83 335
f 333 80 336 579
f 58 335 580 313
f 313 580 337 60
f 580 338 85 337
f 335 83 338 580
f 60 337 581 315
f 315 581 339 62
f 581 340 86 339
f 337 85 340 581
f 62 339 582 317
f 317 582 341 64
f 582 342 87 341
f 339 86 342 582
f 147 400 603 737 736
f 482 201 763 760
f 66 319 294 43
f 695 693 692 751 752 694 697 696
f 449 641 478 448 626
f 30 320 571 558 263
f 385 152 822 821
f 70 345 584 324
f 324 584 346 71
f 584 347 94 346
f 345 92 347 584
f 71 346 585 326
f 326 585 348 72
f 585 349 96 348
f 346 94 349 585
f 72 348 586 328
f 328 586 350 74
f 586 351 98 350
f 348 96 351 586
f 74 350 587 330
f 330 587 352 77
f 587 353 101 352
f 350 98 353 587
f 77 352 588 331
f 331 588 332 54
f 588 354 78 332
f 352 101 354 588
f 803 334 78 802
f 804 805 355 80 334 803
f 807 356 104 355 805 806
f 102 356 807 808
f 80 355 589 336
f 336 589 357 83
f 589 358 105 357
f 355 104 358 589
f 83 357 590 338
f 338 590 359 85
f 359 590 714 715
f 716 714 590 357 105
f 85 359 591 340
f 340 591 360 86
f 361 106 719 717
f 360 591 718 720
f 721 361 717
f 591 359 715 718
f 86 360 592 342
f 781 403 385 151 778
f 775 450 628 776
f 592 360 720 723
f 755 705 704 706 694 752
f 143 383 371 124
f 823 347 92 820
f 824 94 347 823
f 386 604 404 135 373
f 827 349 94 824
f 828 96 349 827
f 362 117 830 829
f 831 351 96 828
f 832 98 351 831
f 363 118 834 833
f 117 363 833 830
f 835 353 98 832
f 836 101 353 835
f 837 364 119 838
f 834 118 364 837
f 839 354 101 836
f 802 78 354 839
f 840 365 102 808
f 838 119 365 840
f 102 366 593 356
f 356 593 367 104
f 593 368 121 367
f 366 120 368 593
f 104 367 594 358
f 726 727 105 358 594
f 369 123 730 728
f 594 729 726
f 369 728 731
f 732 729 594 367 121
f 595 734 733
f 105 727 716
f 3 234 4 237 667 231
f 730 123 370 595 733
f 161 422 613 603 400
f 603 402 738 737
f 603 613 424 402
f 766 777 817 813
f 759 200 482 760
f 136 153 388 376
f 389 155 138 378
f 118 375 596 364
f 364 596 377 119
f 596 378 138 377
f 375 137 378 596
f 119 377 597 365
f 365 597 366 102
f 597 379 120 366
f 377 138 379 597
f 381 141 123 369
f 595 370 124 735 734
f 745 121 368 743
f 380 746 747
f 746 380 139 744
f 121 745 732
f 139 381 369 731 744
f 748 743 368 120
f 452 629 428 780 779
f 402 424 614 741 738
f 451 184 450 775 764
f 1 228 2 231 667 279
f 135 374 362 829 826
f 138 155 390 379
f 825 373 135 826
f 705 755 756 707 708 710 709
f 292 43 294 248 25
f 425 625 446 424 613
f 602 401 161 400 147 384
f 739 740 319 66
f 257 680 679 678 687 688 29
f 628 452 779 776
f 817 777 778 151 818
f 627 480 199 753 750
f 370 382 143 124
f 757 748 120 379 390
f 141 382 370 123
f 758 391 598 380 747
f 380 598 392 139
f 598 393 157 392
f 391 156 393 598
f 139 392 599 381
f 381 599 394 141
f 599 395 158 394
f 392 157 395 599
f 141 394 600 382
f 382 600 396 143
f 600 397 159 396
f 394 158 397 600
f 143 396 601 383
f 383 601 398 145
f 601 399 160 398
f 396 159 399 601
f 145 398 602 384
f 448 478 198 480 627
f 398 160 401 602
f 374 136 117 362
f 29 688 689 810 809 260
f 383 145 126 371
f 260 809 811 320 30
f 152 386 373 825 822
f 341 87 343 318 64
f 604 405 163 404
f 44 742 751 692 685 686 684 251 26
f 387 605 406 153
f 605 407 164 406
f 404 163 407 605
f 153 406 606 388
f 388 606 408 154
f 606 409 165 408
f 406 164 409 606
f 154 408 607 389
f 389 607 410 155
f 166 769 767
f 768 770 410 607 411
f 408 165 411 607
f 771 772 390 155 410
f 391 758 773
f 390 772 757
f 773 774 412 156 391
f 769 166 412 774
f 410 770 771
f 156 413 608 393
f 393 608 414 157
f 608 415 168 414
f 413 167 415 608
f 157 414 609 395
f 395 609 416 158
f 609 417 169 416
f 414 168 417 609
f 158 416 610 397
f 397 610 418 159
f 610 419 170 418
f 416 169 419 610
f 159 418 611 399
f 399 611 420 160
f 611 421 171 420
f 418 170 421 611
f 160 420 612 401
f 401 612 422 161
f 612 423 172 422
f 420 171 423 612
f 422 172 425 613
f 819 583 344 816
f 816 344 321 571 815
f 614 626 448 426
f 761 712 711 713 707 756
f 698 699 700 712 761 762
f 162 405 604 386 152
f 765 812 814 690 691 701 702 703 698 762
f 151 385 821 818
f 248 294 44 26
f 27 669 677 676 675 674 254
f 424 446 626 614
f 376 137 375 118 363
f 780 428 173 782
f 17 276 18 279 667 273
f 162 427 615 405
f 405 615 429 163
f 785 429 615 784
f 782 173 786
f 784 615 427 783
f 163 429 616 407
f 407 616 430 164
f 174 789 787
f 790 430 616 788
f 788 616 429 785
f 164 430 617 409
f 791 792 165 409 617
f 793 431 175 795
f 617 794 791
f 789 174 431 793
f 794 617 430 790
f 618 797 796
f 798 411 165 792
f 767 797 618 432 166
f 411 798 768
f 618 433 176 432
f 795 175 433 618 796
f 166 432 619 412
f 412 619 413 156
f 619 434 167 413
f 432 176 434 619
f 167 435 620 415
f 415 620 436 168
f 620 437 178 436
f 435 177 437 620
f 168 436 621 417
f 417 621 438 169
f 621 439 179 438
f 436 178 439 621
f 169 438 622 419
f 419 622 440 170
f 622 441 180 440
f 438 179 441 622
f 170 440 623 421
f 421 623 442 171
f 623 443 181 442
f 440 180 443 623
f 171 442 624 423
f 423 624 444 172
f 624 445 182 444
f 442 181 445 624
f 172 444 625 425
f 625 447 183 446
f 444 182 447 625
f 735 124 371 361 721
f 446 183 449 626
f 28 671 681 680 257
f 321 344 583 572
f 254 674 673 672 671 28
f 320 811 815 571
f 570 318 66 43 293
f 592 723 724 87 342
f 628 453 185 452
f 318 343 725 739 66
f 428 629 454 173
f 629 455 186 454
f 452 185 455 629
f 799 786 173 454 630
f 799 630 456 800
f 630 457 187 456
f 454 186 457 630
f 800 456 631 801
f 787 801 631 458 174
f 631 459 188 458
f 456 187 459 631
f 174 458 632 431
f 431 632 460 175
f 632 461 189 460
f 458 188 461 632
f 175 460 633 433
f 433 633 462 176
f 633 463 190 462
f 460 189 463 633
f 176 462 634 434
f 434 634 435 167
f 634 464 177 435
f 462 190 464 634
f 177 465 635 437
f 437 635 466 178
f 635 467 192 466
f 465 191 467 635
f 178 466 636 439
f 439 636 468 179
f 636 469 193 468
f 466 192 469 636
f 179 468 637 441
f 441 637 470 180
f 637 471 194 470
f 468 193 471 637
f 180 470 638 443
f 443 638 472 181
f 638 473 195 472
f 470 194 473 638
f 181 472 639 445
f 445 639 474 182
f 639 475 196 474
f 472 195 475 639
f 182 474 640 447
f 447 640 476 183
f 640 477 197 476
f 474 196 477 640
f 183 476 641 449
f 641 479 198 478
f 476 197 479 641
f 184 483 642 453 628 450
f 812 765 766 813
f 783 427 162 403 781
f 820 92 345 583 819
f 251 684 683 682 670 669 27
f 453 642 485 185
f 642 486 203 485
f 483 202 486 642
f 185 485 643 455
f 455 643 487 186
f 643 488 204 487
f 485 203 488 643
f 186 487 644 457
f 457 644 489 187
f 644 490 205 489
f 487 204 490 644
f 187 489 645 459
f 459 645 491 188
f 645 492 206 491
f 489 205 492 645
f 188 491 646 461
f 461 646 493 189
f 646 494 207 493
f 491 206 494 646
f 189 493 647 463
f 463 647 495 190
f 647 496 208 495
f 493 207 496 647
f 190 495 648 464
f 464 648 465 177
f 648 497 191 465
f 495 208 497 648
f 191 498 649 467
f 467 649 499 192
f 649 500 210 499
f 498 209 500 649
f 192 499 650 469
f 469 650 501 193
f 650 502 211 501
f 499 210 502 650
f 193 501 651 471
f 471 651 503 194
f 651 504 212 503
f 501 211 504 651
f 194 503 652 473
f 473 652 505 195
f 652 506 213 505
f 503 212 506 652
f 195 505 653 475
f 475 653 507 196
f 653 508 214 507
f 505 213 508 653
f 196 507 654 477
f 477 654 509 197
f 654 510 215 509
f 507 214 510 654
f 197 509 655 479
f 479 655 511 198
f 655 512 216 511
f 509 215 512 655
f 198 511 656 480
f 480 656 513 199
f 656 514 217 513
f 511 216 514 656
f 199 513 657 481
f 481 657 515 200
f 657 516 218 515
f 513 217 516 657
f 200 515 658 482
f 482 658 517 201
f 658 518 219 517
f 515 218 518 658
f 201 517 659 484
f 484 659 519 202
f 659 520 220 519
f 517 219 520 659
f 202 519 660 486
f 486 660 521 203
f 660 522 221 521
f 519 220 522 660
f 203 521 661 488
f 488 661 523 204
f 661 524 222 523
f 521 221 524 661
f 204 523 662 490
f 490 662 525 205
f 662 526 223 525
f 523 222 526 662
f 205 525 663 492
f 492 663 527 206
f 663 528 224 527
f 525 223 528 663
f 206 527 664 494
f 494 664 529 207
f 664 530 225 529
f 527 224 530 664
f 207 529 665 496
f 496 665 531 208
f 665 532 226 531
f 529 225 532 665
f 208 531 666 497
f 497 666 498 191
f 666 533 209 498
f 531 226 533 666
f 763 201 484 451 764
f 16 273 667 270
f 15 270 667 267
f 14 267 667 264
f 13 264 667 261
f 12 261 667 258
f 11 258 667 255
f 10 255 667 252
f 9 252 667 249
f 8 249 667 246
f 7 246 667 243
f 6 243 667 240
f 5 240 667 237
f 135 404 605 387 374
f 558 571 321 45 295
f 209 533 668 500
f 210 500 668 502
f 211 502 668 504
f 212 504 668 506
f 213 506 668 508
f 214 508 668 510
f 215 510 668 512
f 216 512 668 514
f 217 514 668 516
f 218 516 668 518
f 219 518 668 520
f 220 520 668 522
f 221 522 668 524
f 222 524 668 526
f 223 526 668 528
f 224 528 668 530
f 225 530 668 532
f 226 532 668 533
f 682 51 49 670
f 706 65 697 694
f 683 52 51 682
f 686 55 52 683 684
f 685 56 55 686
f 693 59 56 685 692
f 693 695 61 59
f 696 63 61 695
f 670 49 677 669
f 65 63 696 697
f 59 76 75 56
f 61 79 76 59
f 676 67 675
f 79 61 63 81
f 676 677 49 68 67
f 81 63 65 82
f 49 51 69 68
f 84 82 65 706 704
f 69 51 52 841 842 843
f 84 704 705 709
f 52 55 73 845 844 841
f 56 75 73 55
f 100 82 84 103
f 90 69 843 846
f 710 103 84 709
f 73 91 847 845
f 75 93 91 73
f 76 95 93 75
f 79 97 95 76
f 674 675 67 88 673
f 81 99 97 79
f 68 89 88 67
f 82 100 99 81
f 69 90 89 68
f 97 113 112 95
f 88 107 672 673
f 99 114 113 97
f 89 108 107 88
f 100 115 114 99
f 90 109 108 89
f 103 116 115 100
f 848 109 90 846
f 116 103 710 708
f 91 110 849 847
f 93 111 110 91
f 95 112 111 93
f 850 127 109 848
f 713 134 116 708 707
f 110 128 851 849
f 111 129 128 110
f 112 130 129 111
f 113 131 130 112
f 671 672 107 122 681
f 114 132 131 113
f 108 125 122 107
f 115 133 132 114
f 109 127 125 108
f 116 134 133 115
f 130 131 148 146
f 681 122 679 680
f 131 132 149 148
f 122 125 678 679
f 132 133 150 149
f 687 678 125 127 140
f 700 150 133 134 711 712
f 852 140 127 850
f 713 711 134
f 128 142 853 851
f 142 128 129 144
f 129 130 146 144
f 142 690 814 853
f 142 144 691 690
f 701 691 144 146
f 701 146 148 702
f 148 149 703 702
f 698 703 149 150 699
f 687 140 689 688
f 700 699 150
f 810 689 140 852
f 734 735 721 717 719 722 736 737 738 741 749 750 753 754 759 760 763 764 775 776 779 780 782 786 799 800 801 787 789 793 795 796 797 767 769 774 773 758 747 746 744 731 728 730 733
f 777 766 765 762 761 756 755 752 751 742 740 739 725 724 723 720 718 715 714 716 727 726 729 732 745 743 748 757 772 771 770 768 798 792 791 794 790 788 785 784 783 781 778
f 805 804 842 841 844 806
f 814 812 813 817 818 821 822 825 826 829 830 833 834 837 838 840 808 807 806 844 845 847 849 851 853
f 802 839 836 835 832 831 828 827 824 823 820 819 816 815 811 809 810 852 850 848 846 843 842 804 803
o paru_-1
v -0.454237 0.864420 -0.003315
v -0.140000 0.024451 0.050559
v -0.444537 0.870716 -0.070322
v -0.140000 -0.051619 0.022836
v -0.140000 -0.464451 0.050559
v -0.416606 0.888846 -0.132551
v -0.373812 0.916622 -0.177318
v -0.321319 0.950695 -0.194094
v -0.265456 0.986955 -0.180173
v -0.212963 1.021028 -0.142664
v -0.170169 1.048804 -0.094328
v -0.142238 1.066934 -0.046205
v -0.132538 1.073231 -0.002847
v -0.142238 1.066934 0.036689
v -0.170169 1.048804 0.074133
v -0.212963 1.021028 0.108094
v -0.265456 0.986955 0.133591
v -0.321319 0.950695 0.144336
v -0.373812 0.916622 0.135596
v -0.416606 0.888846 0.106036
v -0.444537 0.870716 0.057994
v -0.604214 0.790995 -0.001568
v -0.589164 0.795846 -0.101907
v -0.545831 0.809816 -0.195265
v -0.479440 0.831219 -0.262519
v -0.398000 0.857473 -0.287667
v -0.311333 0.885413 -0.266560
v -0.229893 0.911667 -0.210010
v -0.163502 0.933070 -0.137428
v -0.120169 0.947040 -0.065510
v -0.105119 0.951891 -0.000975
v -0.120169 0.947040 0.057840
v -0.163502 0.933070 0.113710
v -0.229893 0.911667 0.164575
v -0.311333 0.885413 0.202887
v -0.398000 0.857473 0.219128
v -0.479440 0.831219 0.206162
v -0.545831 0.809816 0.161987
v -0.589164 0.795846 0.090140
v -0.737752 0.690781 -0.001924
v -0.718717 0.692760 -0.125027
v -0.663907 0.698458 -0.239564
v -0.579933 0.707189 -0.322075
v -0.476924 0.717898 -0.352928
v -0.367304 0.729294 -0.327033
v -0.264294 0.740003 -0.257655
v -0.180321 0.748733 -0.168605
v -0.180321 0.748733 0.139507
v -0.264294 0.740003 0.201912
v -0.367304 0.729294 0.248915
v -0.476924 0.717898 0.268840
v -0.579933 0.707189 0.252933
v -0.663906 0.698458 0.198737
v -0.718717 0.692760 0.110590
v -0.840564 0.545348 -0.002195
v -0.818460 0.545804 -0.142670
v -0.754814 0.547117 -0.273372
v -0.657303 0.549129 -0.367526
v -0.537688 0.551596 -0.402733
v -0.410396 0.554222 -0.373184
v -0.290780 0.556689 -0.294015
v -0.290780 0.556689 0.230405
v -0.410396 0.554222 0.284041
v -0.537688 0.551596 0.306779
v -0.657303 0.549128 0.288626
v -0.754814 0.547117 0.226782
v -0.818460 0.545804 0.126196
v -0.916590 0.362792 -0.002401
v -0.892217 0.362833 -0.156055
v -0.822037 0.362951 -0.299018
v -0.714516 0.363132 -0.402006
v -0.582621 0.363354 -0.440516
v -0.442261 0.363590 -0.408195
v -0.310366 0.363813 0.252021
v -0.582621 0.363354 0.335560
v -0.714515 0.363132 0.315704
v -0.822037 0.362951 0.248058
v -0.892217 0.362833 0.138036
v -0.963466 0.167708 -0.002539
v -0.937694 0.167708 -0.165029
v -0.749792 0.167708 -0.425124
v -0.749792 0.167708 0.333859
v -0.863486 0.167708 0.262323
v -0.937694 0.167708 0.145973
v -0.996949 -0.028750 -0.002650
v -0.970178 -0.028750 -0.172254
v -0.893091 -0.028750 -0.330057
v -0.774989 -0.028750 -0.443735
v -0.630114 -0.028750 -0.486243
v -0.630114 -0.028750 0.370391
v -0.774989 -0.028750 0.348475
v -0.893091 -0.028750 0.273807
v -0.970178 -0.028750 0.152364
v -1.023342 -0.225208 -0.002740
v -0.995782 -0.225208 -0.178110
v -0.916428 -0.225208 -0.341277
v -0.794850 -0.225208 -0.458820
v -0.645713 -0.225208 -0.502773
v -0.487004 -0.225208 -0.465883
v -0.487004 -0.225208 0.354598
v -0.794850 -0.225208 0.360321
v -0.916428 -0.225208 0.283115
v -1.041856 -0.421667 -0.002798
v -1.013744 -0.421667 -0.181836
v -0.932798 -0.421667 -0.348418
v -0.808783 -0.421667 -0.468420
v -0.656655 -0.421667 -0.513292
v -0.494764 -0.421667 -0.475630
v -0.656655 -0.421667 0.390996
v -0.932798 -0.421667 0.289038
v -1.013744 -0.421667 0.160840
v -1.042250 -0.621422 -0.002794
v -1.014126 -0.621323 -0.181608
v -0.933147 -0.621040 -0.347980
v -0.809079 -0.620606 -0.467832
v -0.656888 -0.620073 -0.512648
v -0.494929 -0.619507 -0.475034
v -0.218670 -0.618540 -0.244908
v -0.342738 -0.618974 0.293287
v -0.494929 -0.619507 0.361562
v -0.656888 -0.620073 0.390505
v -0.809079 -0.620606 0.367398
v -0.933147 -0.621040 0.288676
v -1.014126 -0.621323 0.160638
v -1.014676 -0.849419 -0.002689
v -0.987375 -0.848379 -0.174764
v -0.908765 -0.845385 -0.334866
v -0.788328 -0.840798 -0.450200
v -0.640591 -0.835172 -0.493327
v -0.483372 -0.829184 -0.457130
v -0.335634 -0.823557 -0.360152
v -0.215197 -0.818971 -0.235678
v -0.215197 -0.818971 0.195004
v -0.335634 -0.823557 0.282234
v -0.483372 -0.829184 0.347936
v -0.640591 -0.835172 0.375788
v -0.788328 -0.840798 0.353552
v -0.908765 -0.845385 0.277796
v -0.987375 -0.848379 0.154584
v -0.916201 -1.157028 -0.002373
v -0.891839 -1.152671 -0.154231
v -0.821693 -1.140124 -0.295523
v -0.714222 -1.120902 -0.397307
v -0.582390 -1.097322 -0.435367
v -0.442098 -1.072230 -0.403423
v -0.310265 -1.048650 -0.317838
v -0.202795 -1.029428 -0.207989
v -0.132649 -1.016881 -0.099146
v -0.108287 -1.012524 -0.001476
v -0.132649 -1.016881 0.087537
v -0.202795 -1.029428 0.172093
v -0.310265 -1.048650 0.249075
v -0.442098 -1.072230 0.307057
v -0.582390 -1.097322 0.331637
v -0.714222 -1.120902 0.312013
v -0.821693 -1.140124 0.245158
v -0.891839 -1.152671 0.136422
v -0.724636 -1.414961 -0.005277
v -0.707592 -1.408166 -0.110739
v -0.130000 0.403848 0.080000
v -0.658516 -1.388600 -0.208677
v -0.144070 0.364448 0.099346
v -0.583327 -1.358624 -0.279132
v -0.154525 0.319498 0.113722
v -0.491095 -1.321852 -0.305535
v -0.160963 0.270723 0.122574
v -0.392943 -1.282721 -0.283629
v -0.300711 -1.245949 -0.224601
v -0.163137 0.220000 0.125563
v -0.160963 0.169277 0.122574
v -0.225522 -1.215973 -0.148529
v -0.154525 0.120502 0.113722
v -0.176446 -1.196407 -0.072786
v -0.159403 -1.189612 -0.004538
v -0.176446 -1.196407 0.057694
v -0.225522 -1.215973 0.116629
v -0.300711 -1.245949 0.170080
v -0.392943 -1.282721 0.210209
v -0.491095 -1.321852 0.227117
v -0.583327 -1.358624 0.213360
v -0.658516 -1.388600 0.166833
v -0.126982 0.436182 0.031113
v -0.707592 -1.408166 0.091218
v -0.147980 0.403848 0.047782
v -0.165212 0.364448 0.061462
v -0.525497 0.827109 -0.001701
v -0.426753 0.882734 -0.033556
v -0.178016 0.319498 0.071627
v -0.185902 0.270723 0.077886
v -0.512935 0.833509 -0.087255
v -0.188564 0.220000 0.080000
v -0.600413 0.792220 -0.051536
v -0.185902 0.169277 0.077886
v -0.410099 0.893942 -0.091287
v -0.178016 0.120502 0.071627
v -0.476764 0.851935 -0.166834
v -0.570772 0.801775 -0.150632
v -0.165212 0.075552 0.061462
v -0.147980 0.036152 0.047782
v -0.378800 0.915006 -0.139353
v -0.126982 0.003818 0.031113
v -0.421347 0.880166 -0.224149
v -0.515066 0.819734 -0.233317
v -0.336632 0.943385 -0.167020
v -0.353367 0.914797 -0.245588
v -0.109143 0.460209 -0.008210
v -0.440013 0.843929 -0.280925
v -0.135862 0.436182 0.001634
v -0.288679 0.975657 -0.168035
v -0.281025 0.951650 -0.227625
v -0.159282 0.403848 0.010263
v -0.375388 -0.134160 0.300000
v -0.178502 0.364448 0.017344
v -0.380000 -0.220000 0.300000
v -0.354667 0.871443 -0.282494
v -0.375388 -0.305840 0.300000
v -0.192784 0.319498 0.022606
v -0.240726 1.007929 -0.144434
v -0.213046 0.986281 -0.179457
v -0.201578 0.270723 0.025846
v -0.269320 0.898957 -0.241565
v -0.204548 0.220000 0.026940
v -0.198557 1.036308 -0.105573
v -0.201578 0.169277 0.025846
v -0.157628 1.014512 -0.117596
v -0.192784 0.120502 0.022606
v -0.303923 0.091127 0.245096
v -0.178502 0.075552 0.017344
v -0.194267 0.923152 -0.174521
v -0.332753 0.024451 0.235440
v -0.159282 0.036152 0.010263
v -0.354176 -0.051619 0.228265
v -0.167258 1.057372 -0.062563
v -0.367368 -0.134160 0.223846
v -0.371822 -0.220000 0.222354
v -0.135862 0.003818 0.001634
v -0.121457 1.032938 -0.056257
v -0.138561 0.941111 -0.100746
v -0.354176 -0.388381 0.228265
v -0.150605 1.068580 -0.022419
v -0.332753 -0.464451 0.235440
v -0.108895 1.039338 -0.001181
v -0.303923 -0.531127 0.245096
v -0.108920 0.950666 -0.032317
v -0.150605 1.068580 0.013634
v -0.138891 0.436182 -0.030000
v -0.163137 0.403848 -0.030000
v -0.121457 1.032938 0.049017
v -0.255473 0.145847 0.216664
v -0.108920 0.950666 0.028921
v -0.286969 0.091127 0.193934
v -0.183035 0.364448 -0.030000
v -0.197821 0.319498 -0.030000
v -0.312818 0.024451 0.175280
v -0.167258 1.057372 0.047265
v -0.332025 -0.051619 0.161418
v -0.343852 -0.134160 0.152882
v -0.206926 0.270723 -0.030000
v -0.157628 1.014512 0.096680
v -0.343852 -0.305840 0.152882
v -0.138561 0.941111 0.086146
v -0.332025 -0.388381 0.161418
v -0.210000 0.220000 -0.030000
v -0.312818 -0.464451 0.175280
v -0.198557 1.036308 0.078849
v -0.286969 -0.531127 0.193934
v -0.206926 0.169277 -0.030000
v -0.255473 -0.585847 0.216664
v -0.213046 0.986281 0.140049
v -0.197821 0.120502 -0.030000
v -0.194267 0.923152 0.140153
v -0.183035 0.075552 -0.030000
v -0.163137 0.036152 -0.030000
v -0.240726 1.007929 0.105476
v -0.234283 0.145847 0.182146
v -0.138891 0.003818 -0.030000
v -0.260000 0.091127 0.150000
v -0.281025 0.951650 0.172698
v -0.281105 0.024451 0.123619
v -0.296787 -0.051619 0.104016
v -0.269320 0.898957 0.185901
v -0.288679 0.975657 0.121921
v -0.306445 -0.134160 0.091944
v -0.353367 0.914797 0.186526
v -0.309705 -0.220000 0.087868
v -0.306445 -0.305840 0.091944
v -0.354667 0.871443 0.214298
v -0.296787 -0.388381 0.104016
v -0.336631 0.943385 0.123112
v -0.135862 0.436182 -0.061634
v -0.281105 -0.464451 0.123619
v -0.260000 -0.531127 0.150000
v -0.159282 0.403848 -0.070263
v -0.421347 0.880166 0.175455
v -0.234283 -0.585847 0.182146
v -0.178502 0.364448 -0.077344
v -0.440013 0.843929 0.216540
v -0.378800 0.915006 0.106292
v -0.192784 0.319498 -0.082606
v -0.206668 0.145847 0.155659
v -0.476764 0.851935 0.137779
v -0.201578 0.270723 -0.085846
v -0.224853 0.091127 0.116288
v -0.239776 0.024451 0.083978
v -0.515066 0.819734 0.187860
v -0.250865 -0.051619 0.059969
v -0.204548 0.220000 -0.086940
v -0.410099 0.893942 0.071943
v -0.260000 -0.220000 0.040193
v -0.201578 0.169277 -0.085846
v -0.512935 0.833508 0.076507
v -0.257694 -0.305840 0.045185
v -0.192784 0.120502 -0.082606
v -0.250865 -0.388381 0.059969
v -0.239776 -0.464451 0.083978
v -0.570772 0.801775 0.129109
v -0.224853 -0.531127 0.116288
v -0.178502 0.075552 -0.077344
v -0.206668 -0.585847 0.155659
v -0.426753 0.882734 0.023467
v -0.159282 0.036152 -0.070263
v -0.135862 0.003818 -0.061634
v -0.600413 0.792220 0.046146
v -0.675267 0.746617 -0.001758
v -0.174510 0.145847 0.139008
v -0.658096 0.749861 -0.114266
v -0.183923 0.091127 0.095096
v -0.732944 0.691281 -0.063228
v -0.608657 0.759203 -0.218945
v -0.191648 0.024451 0.059059
v -0.197388 -0.051619 0.032280
v -0.695453 0.695179 -0.184805
v -0.147980 0.403848 -0.107782
v -0.532910 0.773515 -0.294354
v -0.202117 -0.220000 0.010222
v -0.200923 -0.305840 0.015790
v -0.165212 0.364448 -0.121462
v -0.197388 -0.388381 0.032280
v -0.624994 0.702504 -0.286249
v -0.178016 0.319498 -0.131627
v -0.191648 -0.464451 0.059059
v -0.183923 -0.531127 0.095096
v -0.439994 0.791071 -0.322552
v -0.174510 -0.585847 0.139008
v -0.185902 0.270723 -0.137886
v -0.530064 0.712373 -0.344657
v -0.341114 0.809754 -0.298885
v -0.188564 0.220000 -0.140000
v -0.185902 0.169277 -0.137886
v -0.422114 0.723596 -0.346583
v -0.178016 0.120502 -0.131627
v -0.140000 -0.134160 0.005764
v -0.248197 0.827311 -0.235478
v -0.140000 -0.220000 0.000000
v -0.314163 0.734819 -0.296368
v -0.140000 -0.305840 0.005764
v -0.165212 0.075552 -0.121462
v -0.140000 -0.388381 0.022836
v -0.147980 0.036152 -0.107782
v -0.140000 -0.531127 0.087868
v -0.219233 0.744688 -0.214113
v -0.148774 0.752013 0.105689
v -0.248197 0.827311 0.184533
v -0.219233 0.744688 0.171949
v -0.341114 0.809754 0.227491
v -0.314163 0.734819 0.228076
v -0.439994 0.791071 0.245701
v -0.422114 0.723596 0.262915
v -0.532910 0.773515 0.231163
v -0.530064 0.712373 0.265665
v -0.608657 0.759203 0.181631
v -0.624994 0.702504 0.230478
v -0.658096 0.749861 0.101071
v -0.695453 0.695179 0.158399
v -0.732944 0.691281 0.056615
v -0.792556 0.623564 -0.002068
v -0.771885 0.624618 -0.134419
v -0.834982 0.545463 -0.072151
v -0.712364 0.627651 -0.257561
v -0.791447 0.546361 -0.210885
v -0.621175 0.632297 -0.346270
v -0.709629 0.548049 -0.326644
v -0.509314 0.637997 -0.379441
v -0.599395 0.550323 -0.393295
v -0.390274 0.644063 -0.351600
v -0.474042 0.552909 -0.395492
v -0.348689 0.555495 -0.338192
v -0.278413 0.649763 0.217079
v -0.390274 0.644063 0.267614
v -0.348689 0.555495 0.260262
v -0.509314 0.637997 0.289036
v -0.474042 0.552909 0.300017
v -0.621175 0.632297 0.271933
v -0.599395 0.550323 0.303155
v -0.712365 0.627651 0.213666
v -0.709628 0.548049 0.263003
v -0.771885 0.624618 0.118898
v -0.791447 0.546361 0.180752
v -0.834982 0.545463 0.064604
v -0.882270 0.457221 -0.002307
v -0.858921 0.457375 -0.149933
v -0.910434 0.362802 -0.078920
v -0.791691 0.457820 -0.287288
v -0.862430 0.362883 -0.230670
v -0.688688 0.458501 -0.386236
v -0.772213 0.363035 -0.357289
v -0.562337 0.459337 -0.423235
v -0.650662 0.363240 -0.430193
v -0.427876 0.460227 -0.392181
v -0.512441 0.363472 -0.432596
v -0.427876 0.460227 0.298501
v -0.374219 0.363705 0.284679
v -0.562337 0.459337 0.322396
v -0.512441 0.363472 0.328164
v -0.688688 0.458501 0.303319
v -0.650663 0.363239 0.331596
v -0.791691 0.457820 0.238327
v -0.772213 0.363035 0.287677
v -0.858921 0.457375 0.132620
v -0.862431 0.362883 0.197710
v -0.910435 0.362802 0.070665
v -0.942835 0.265766 -0.002476
v -0.917679 0.265771 -0.160941
v -0.956957 0.167708 -0.083458
v -0.845243 0.265786 -0.308381
v -0.906198 0.167708 -0.243934
v -0.810801 0.167708 -0.377835
v -0.598132 0.265836 -0.454309
v -0.682273 0.167708 -0.454931
v -0.453261 0.265865 0.320417
v -0.598132 0.265836 0.346066
v -0.734266 0.265808 0.325589
v -0.845243 0.265786 0.255825
v -0.810801 0.167708 0.304220
v -0.917679 0.265771 0.142358
v -0.906198 0.167708 0.209079
v -0.956957 0.167708 0.074728
v -0.981242 0.069479 -0.002597
v -0.879203 0.069479 -0.323408
v -0.937460 -0.028750 -0.254613
v -0.838364 -0.028750 -0.394376
v -0.704852 -0.028750 -0.474847
v -0.553028 -0.028750 -0.477500
v -0.553028 -0.028750 0.362228
v -0.704852 -0.028750 0.366017
v -0.838364 -0.028750 0.317539
v -0.954939 0.069479 0.149295
v -0.937460 -0.028750 0.218232
v -0.990188 -0.028750 0.078000
v -1.016381 -0.225208 -0.090073
v -0.962102 -0.225208 -0.263269
v -0.860090 -0.225208 -0.407783
v -0.722650 -0.225208 -0.490990
v -0.566358 -0.225208 -0.493733
v -0.410067 -0.225208 -0.422199
v -0.410067 -0.225208 0.324911
v -0.566358 -0.225208 0.374542
v -0.722650 -0.225208 0.378459
v -0.860090 -0.225208 0.328334
v -0.962102 -0.225208 0.225651
v -1.034224 -0.323438 -0.002775
v -1.006339 -0.323438 -0.180344
v -1.034756 -0.421667 -0.091958
v -0.926050 -0.323438 -0.345558
v -0.979388 -0.421667 -0.268777
v -0.803039 -0.323438 -0.464575
v -0.875331 -0.421667 -0.416315
v -0.652144 -0.323438 -0.509079
v -0.735135 -0.421667 -0.501262
v -0.575709 -0.421667 -0.504063
v -0.340670 -0.323438 -0.371652
v -0.416284 -0.421667 -0.431032
v -0.652144 -0.323438 0.387786
v -0.803039 -0.323438 0.364841
v -0.926050 -0.323438 0.286666
v -1.006340 -0.323438 0.159519
v -0.979388 -0.421667 0.230373
v -1.034756 -0.421667 0.082339
v -1.044564 -0.520308 -0.002805
v -1.016371 -0.520296 -0.182321
v -1.035147 -0.621397 -0.091842
v -0.935193 -0.520260 -0.349347
v -0.979756 -0.621203 -0.268440
v -0.810821 -0.520206 -0.469669
v -0.875655 -0.620839 -0.415792
v -0.658256 -0.520139 -0.514660
v -0.735400 -0.620348 -0.500633
v -0.495899 -0.520069 -0.476898
v -0.575908 -0.619790 -0.503430
v -0.343334 -0.520002 -0.375727
v -0.416417 -0.619232 -0.430491
v -0.276162 -0.618741 -0.311011
v -0.172061 -0.618377 -0.179538
v -0.495899 -0.520069 0.362982
v -0.416417 -0.619232 0.331293
v -0.658256 -0.520139 0.392038
v -0.575908 -0.619790 0.381898
v -0.810821 -0.520206 0.368841
v -0.735400 -0.620348 0.385893
v -0.935193 -0.520260 0.289809
v -0.875655 -0.620839 0.334783
v -1.016371 -0.520296 0.161268
v -0.979756 -0.621203 0.230084
v -1.035147 -0.621397 0.082236
v -1.034076 -0.728538 -0.002760
v -1.006196 -0.728175 -0.179384
v -1.007781 -0.849156 -0.088381
v -0.925919 -0.727128 -0.343718
v -0.954010 -0.847108 -0.258323
v -0.802928 -0.725523 -0.462102
v -0.852956 -0.843260 -0.400122
v -0.652057 -0.723555 -0.506368
v -0.716806 -0.838074 -0.481765
v -0.491503 -0.721461 -0.469215
v -0.561981 -0.832178 -0.484457
v -0.340632 -0.719493 -0.369673
v -0.407157 -0.826281 -0.414267
v -0.271007 -0.821096 -0.299290
v -0.169952 -0.817248 0.147733
v -0.340632 -0.719493 0.289695
v -0.271007 -0.821096 0.240353
v -0.491503 -0.721461 0.357134
v -0.407157 -0.826281 0.318807
v -0.652057 -0.723555 0.385722
v -0.561981 -0.832178 0.367505
v -0.802928 -0.725523 0.362898
v -0.716806 -0.838074 0.371349
v -0.925919 -0.727128 0.285140
v -0.852956 -0.843260 0.322165
v -1.006196 -0.728175 0.158670
v -0.954010 -0.847108 0.221412
v -1.007780 -0.849156 0.079136
v -0.977549 -0.991541 -0.002565
v -0.951357 -0.989192 -0.166721
v -0.910048 -1.155928 -0.077997
v -0.875938 -0.982425 -0.319456
v -0.862067 -1.147346 -0.227973
v -0.760390 -0.972059 -0.429483
v -0.771892 -1.131217 -0.353112
v -0.618649 -0.959343 -0.470625
v -0.650400 -1.109487 -0.425163
v -0.467811 -0.945811 -0.436094
v -0.512244 -1.084776 -0.427538
v -0.326070 -0.933094 -0.343579
v -0.374088 -1.060065 -0.365595
v -0.252596 -1.038335 -0.264127
v -0.162421 -1.022206 -0.152472
v -0.114440 -1.013625 -0.048910
v -0.114440 -1.013624 0.043770
v -0.162421 -1.022207 0.130376
v -0.326070 -0.933094 0.269246
v -0.252596 -1.038335 0.212114
v -0.467811 -0.945811 0.331924
v -0.374088 -1.060065 0.281351
v -0.618649 -0.959343 0.358495
v -0.512244 -1.084776 0.324328
v -0.760390 -0.972059 0.337282
v -0.650400 -1.109487 0.327720
v -0.875938 -0.982425 0.265013
v -0.771892 -1.131217 0.284314
v -0.951357 -0.989191 0.147470
v -0.862067 -1.147346 0.195399
v -0.910048 -1.155928 0.069839
v -0.826198 -1.327276 -0.002660
v -0.804775 -1.320720 -0.135612
v -0.679861 -1.419749 -0.052988
v -0.743093 -1.301844 -0.259278
v -0.650464 -1.407569 -0.144015
v -0.648589 -1.272923 -0.348346
v -0.595216 -1.384679 -0.219802
v -0.532664 -1.237448 -0.381662
v -0.520779 -1.353839 -0.263426
v -0.409298 -1.199695 -0.353749
v -0.436134 -1.318769 -0.265027
v -0.293372 -1.164219 -0.278898
v -0.351488 -1.283698 -0.227815
v -0.198869 -1.135299 -0.182766
v -0.277052 -1.252858 -0.166544
v -0.137186 -1.116423 -0.087444
v -0.221804 -1.229968 -0.098727
v -0.115764 -1.109867 -0.001852
v -0.192407 -1.217788 -0.035428
v -0.137186 -1.116423 0.076160
v -0.192407 -1.217788 0.021423
v -0.198869 -1.135299 0.150230
v -0.221804 -1.229968 0.074452
v -0.293372 -1.164219 0.217626
v -0.277052 -1.252858 0.124254
v -0.409298 -1.199695 0.268363
v -0.351488 -1.283698 0.166237
v -0.532663 -1.237448 0.289851
v -0.436134 -1.318769 0.192165
v -0.648589 -1.272923 0.272646
v -0.520779 -1.353839 0.194043
v -0.743093 -1.301843 0.214095
v -0.595215 -1.384679 0.167521
v -0.804775 -1.320720 0.118876
v -0.650464 -1.407569 0.113360
v -0.679861 -1.419749 0.036923
v -0.520161 0.830101 -0.044033
v -0.495625 0.842620 -0.127829
v -0.449511 0.866149 -0.197737
v -0.387382 0.897849 -0.237987
v -0.316732 0.933897 -0.239325
v -0.246082 0.969945 -0.204742
v -0.183953 1.001645 -0.148070
v -0.137839 1.025173 -0.085682
v -0.113303 1.037693 -0.027788
v -0.113303 1.037693 0.024037
v -0.137839 1.025173 0.072458
v -0.183953 1.001645 0.118141
v -0.246082 0.969945 0.156823
v -0.316732 0.933897 0.180824
v -0.387382 0.897849 0.182707
v -0.449511 0.866149 0.158443
v -0.495625 0.842620 0.108750
v -0.520161 0.830101 0.038580
v -0.670930 0.747436 -0.057786
v -0.637113 0.753826 -0.168899
v -0.573556 0.765835 -0.261611
v -0.487927 0.782014 -0.314992
v -0.390554 0.800413 -0.316752
v -0.293180 0.818811 -0.270860
v -0.207551 0.834991 0.157150
v -0.293180 0.818811 0.208446
v -0.390554 0.800413 0.240286
v -0.487928 0.782014 0.242799
v -0.573556 0.765835 0.210641
v -0.637113 0.753826 0.144766
v -0.670930 0.747436 0.051742
v -0.787335 0.623830 -0.067978
v -0.746622 0.625905 -0.198688
v -0.670108 0.629804 -0.307752
v -0.567021 0.635057 -0.370548
v -0.449794 0.641030 -0.372618
v -0.332567 0.647004 -0.318632
v -0.229479 0.652257 0.184867
v -0.332567 0.647004 0.245210
v -0.449794 0.641030 0.282666
v -0.567021 0.635057 0.285622
v -0.670108 0.629804 0.247792
v -0.746622 0.625905 0.170298
v -0.787335 0.623830 0.060868
v -0.876373 0.457260 -0.075824
v -0.830387 0.457564 -0.221620
v -0.743961 0.458136 -0.343272
v -0.627519 0.458906 -0.413316
v -0.495106 0.459782 -0.415625
v -0.362694 0.460658 -0.355408
v -0.362694 0.460658 0.273511
v -0.495106 0.459782 0.315290
v -0.627519 0.458906 0.318588
v -0.743961 0.458136 0.276392
v -0.830387 0.457564 0.189954
v -0.876373 0.457260 0.067893
v -0.936481 0.265767 -0.081391
v -0.886935 0.265777 -0.237892
v -0.793817 0.265796 -0.368476
v -0.668360 0.265822 -0.443662
v -0.525696 0.265851 -0.446141
v -0.383032 0.265880 0.293593
v -0.525696 0.265851 0.338439
v -0.668360 0.265822 0.341979
v -0.793817 0.265796 0.296685
v -0.886935 0.265777 0.203900
v -0.936481 0.265767 0.072877
v -0.974599 0.069479 -0.085357
v -0.922794 0.069479 -0.249485
v -0.922794 0.069479 0.213837
v -0.974599 0.069479 0.076429
v -1.027181 -0.323437 -0.091203
v -0.972262 -0.323437 -0.266571
v -0.869048 -0.323437 -0.412898
v -0.729988 -0.323437 -0.497148
v -0.571855 -0.323437 -0.499925
v -0.413721 -0.323437 -0.427494
v -0.571855 -0.323437 0.379240
v -0.729988 -0.323437 0.383206
v -0.869048 -0.323437 0.332452
v -1.027181 -0.323437 0.081663
v -1.037444 -0.520305 -0.092203
v -0.981917 -0.520281 -0.269494
v -0.877560 -0.520235 -0.417425
v -0.736961 -0.520174 -0.502599
v -0.577077 -0.520104 -0.505406
v -0.417194 -0.520034 -0.432181
v -0.276595 -0.519973 -0.312232
v -0.577077 -0.520104 0.383398
v -0.736961 -0.520174 0.387408
v -0.877560 -0.520235 0.336097
v -0.981917 -0.520281 0.230987
v -1.037444 -0.520305 0.082559
v -1.027034 -0.728447 -0.090717
v -0.972124 -0.727730 -0.265152
v -0.868926 -0.726384 -0.410699
v -0.729888 -0.724571 -0.494501
v -0.571780 -0.722508 -0.497264
v -0.413672 -0.720446 -0.425218
v -0.274634 -0.718632 -0.307202
v -0.274634 -0.718632 0.246707
v -0.413672 -0.720446 0.327235
v -0.571780 -0.722508 0.377221
v -0.729888 -0.724571 0.381166
v -0.868926 -0.726384 0.330682
v -0.972124 -0.727730 0.227265
v -1.027034 -0.728447 0.081228
v -0.970934 -0.990948 -0.084314
v -0.919347 -0.986320 -0.246436
v -0.822394 -0.977622 -0.381709
v -0.691770 -0.965903 -0.459596
v -0.543230 -0.952577 -0.462163
v -0.394690 -0.939250 -0.395203
v -0.264066 -0.927532 -0.285517
v -0.264066 -0.927532 0.229292
v -0.394690 -0.939250 0.304136
v -0.543230 -0.952577 0.350594
v -0.691770 -0.965903 0.354261
v -0.822394 -0.977622 0.307340
v -0.919347 -0.986320 0.211223
v -0.970934 -0.990948 0.075495
v -0.817358 -1.326572 -0.068452
v -0.775510 -1.313741 -0.198679
v -0.696861 -1.289628 -0.307322
v -0.590898 -1.257140 -0.369874
v -0.470401 -1.220196 -0.371954
v -0.349903 -1.183252 -0.318209
v -0.243940 -1.150765 -0.230136
v -0.165291 -1.126651 -0.133179
v -0.123443 -1.113821 -0.043206
v -0.123443 -1.113821 0.037336
v -0.165291 -1.126651 0.112588
v -0.243940 -1.150765 0.183584
v -0.349903 -1.183253 0.243699
v -0.470401 -1.220196 0.281000
v -0.590898 -1.257140 0.283926
v -0.696861 -1.289628 0.246216
v -0.775510 -1.313741 0.168988
v -0.817358 -1.326572 0.059937
v -0.274599 0.996084 -0.012618
v -0.418536 -1.368053 -0.020152
v -0.142499 0.403848 -0.117602
v -0.131783 0.427081 -0.097792
v -0.154719 0.364448 -0.140265
v -0.108576 0.460209 -0.006327
v -0.107953 0.459521 -0.001436
v -0.108831 0.460368 -0.008325
v -0.111604 0.459883 -0.030000
v -0.110116 0.460209 -0.018372
v -0.113876 0.456441 -0.047664
v -0.116289 0.453783 -0.054423
v -0.128083 0.436182 -0.087459
v -0.130348 0.430998 -0.093785
v -0.132269 0.392364 0.087572
v -0.128099 0.407433 0.077386
v -0.129420 0.403848 0.080612
v -0.116692 0.436182 0.049553
v -0.113974 0.440638 0.042934
v -0.110600 0.452613 0.018107
v -0.141752 0.364448 0.101792
v -0.163318 0.321675 -0.156362
v -0.163807 0.319498 -0.157089
v -0.169897 0.270723 -0.166566
v -0.171758 0.220000 -0.170115
v -0.169293 0.169277 -0.167648
v -0.151652 0.319498 0.116753
v -0.157642 0.270723 0.126078
v -0.159507 0.220000 0.129393
v -0.157167 0.169277 0.126579
v -0.166315 0.147565 -0.163909
v -0.153747 0.075552 -0.142005
v -0.163083 0.120502 -0.158386
v -0.141271 0.036152 -0.119802
v -0.109091 -0.018650 -0.001645
v -0.112712 -0.018921 -0.030000
v -0.109896 -0.019531 -0.007932
v -0.115827 -0.014147 -0.054462
v -0.115799 -0.014223 -0.054242
v -0.111855 -0.011354 0.019104
v -0.115478 0.001717 0.046309
v -0.151434 0.126047 0.118761
v -0.164369 0.145847 0.137339
v -0.166311 0.147798 0.140148
v -0.198439 0.161976 0.173476
v -0.208866 0.162531 0.184363
v -0.172821 0.152241 0.146887
v -0.258196 0.145847 0.224882
v -0.251631 0.150194 0.219437
v -0.262313 0.141678 0.228333
v -0.223175 0.161241 0.196031
v -0.305259 0.091127 0.257778
v -0.292478 0.108955 0.248930
v -0.328071 0.043990 0.274032
v -0.337396 0.024451 0.279525
v -0.113007 -0.051619 0.027278
v -0.110247 -0.220000 0.004896
v -0.361142 -0.051619 0.294407
v -0.369134 -0.096363 0.300000
v -0.374946 -0.134160 0.304199
v -0.379077 -0.220000 0.308767
v -0.111095 -0.305840 0.010521
v -0.113390 -0.388381 0.027215
v -0.374510 -0.305840 0.308342
v -0.355215 -0.410731 0.300000
v -0.116680 -0.456924 0.051654
v -0.117727 -0.464451 0.054225
v -0.131971 -0.531127 0.089189
v -0.137756 -0.549329 0.103360
v -0.218223 -0.608104 0.202221
v -0.218701 -0.607972 0.202727
v -0.195987 -0.606781 0.178785
v -0.172099 -0.597453 0.153647
v -0.171546 -0.597070 0.152836
v -0.140000 -0.553724 0.106642
v -0.160548 -0.585847 0.136710
v -0.338623 -0.464451 0.291170
v -0.342844 -0.450954 0.293889
v -0.306576 -0.531127 0.270289
v -0.276366 -0.572148 0.250228
v -0.280478 -0.567646 0.252949
v -0.262905 -0.585847 0.239092
v -0.244923 -0.597784 0.224278
v -0.153753 0.120502 0.114536
v -0.154126 0.118788 0.113174
v -0.155458 0.091127 0.090412
v -0.154049 0.075552 0.081465
v -0.142542 0.036152 0.057525
v -0.118337 0.003818 0.046605
v -0.140000 0.031710 0.054621
v -0.135006 0.024451 0.051381
v -0.855864 0.208686 -0.312941
v -0.892313 0.167708 -0.267431
v -0.728012 0.296626 -0.410608
v -0.783623 0.265798 -0.376370
v -0.737068 0.248101 -0.416494
v -0.803533 0.209685 -0.373830
v -0.794950 0.259252 -0.369100
v -0.854084 0.167708 -0.327210
v -0.667271 0.271816 -0.442833
v -0.658576 0.319682 -0.436215
v -0.685343 0.265818 -0.436172
v -0.595830 0.280307 -0.452263
v -0.588236 0.328051 -0.445510
v -0.524617 0.273801 -0.445038
v -0.518120 0.321649 -0.438399
v -0.449223 0.301737 -0.416284
v -0.497124 0.265857 -0.436214
v -0.454362 0.253362 -0.422338
v -0.382663 0.269981 -0.381016
v -0.321859 0.178475 -0.339168
v -0.319154 0.228441 -0.334881
v -0.386227 0.220616 -0.385970
v -0.260928 0.180559 -0.281703
v -0.953342 0.078573 -0.168436
v -0.957401 0.069479 -0.158336
v -0.961617 0.026430 -0.170305
v -0.985039 -0.028750 -0.109021
v -0.984862 0.004809 -0.086512
v -0.993219 -0.028750 -0.049242
v -0.918253 0.096357 -0.247966
v -0.909599 0.147576 -0.245072
v -0.935289 0.069479 -0.218115
v -0.864972 0.158420 -0.316894
v -0.262715 0.129794 -0.285101
v -0.210800 0.077653 -0.227193
v -0.209628 0.129091 -0.224542
v -0.167292 0.076901 -0.166579
v -0.138643 0.030542 -0.115092
v -0.135869 -0.027240 -0.110698
v -0.167942 0.024736 -0.168422
v -0.115855 -0.023950 -0.054572
v -0.125481 0.000246 -0.081445
v -0.992926 -0.048195 -0.087425
v -1.010530 -0.124484 -0.002697
v -1.002898 -0.070683 -0.002671
v -0.115990 -0.077286 -0.055116
v -0.109246 -0.125402 -0.001678
v -0.109169 -0.071592 -0.001661
v -0.112009 -0.090547 0.019391
v -0.110874 -0.136290 0.010415
v -0.994490 -0.214708 0.157286
v -0.990143 -0.225208 0.168947
v -1.013112 -0.199238 0.080325
v -1.006260 -0.144796 0.079640
v -0.494007 -0.398415 0.361313
v -0.414949 -0.370482 0.330291
v -0.367780 -0.348255 0.305604
v -0.358624 -0.398463 0.301587
v -0.575536 -0.417255 0.382237
v -0.620404 -0.421667 0.387136
v -0.807739 -0.403816 0.367311
v -0.735098 -0.420963 0.386355
v -0.722240 -0.421667 0.387136
v -0.930375 -0.386397 0.288187
v -0.926595 -0.331375 0.286858
v -0.885097 -0.421667 0.327358
v -0.872262 -0.373696 0.333859
v -0.967524 -0.277625 0.227162
v -0.932900 -0.323438 0.278042
v -1.000550 -0.269569 0.158436
v -0.977312 -0.323437 0.218263
v -0.972941 -0.332801 0.228662
v -0.416321 -0.425617 0.331745
v -0.495127 -0.453152 0.362325
v -0.576404 -0.471674 0.382896
v -0.657595 -0.479518 0.391608
v -0.656712 -0.425175 0.391033
v -0.736129 -0.475314 0.386939
v -0.809544 -0.458465 0.368226
v -0.875492 -0.428789 0.335268
v -0.133203 0.013397 -0.096051
v -0.128699 0.003818 -0.085412
v -0.126116 -0.134160 0.008049
v -0.140000 -0.132426 0.006123
v -0.140000 -0.087051 0.015508
v -0.369205 -0.343209 0.300000
v -0.359208 -0.397034 0.300000
v -0.360719 -0.388381 0.290390
v -0.371017 -0.305840 0.258498
v -0.369013 -0.274143 0.223295
v -0.363569 -0.329610 0.225119
v -0.347311 -0.208496 0.150386
v -0.352208 -0.220000 0.163163
v -0.359041 -0.305840 0.198719
v -0.345832 -0.263282 0.151453
v -0.319230 -0.220000 0.103384
v -0.309197 -0.206602 0.088504
v -0.307236 -0.154984 0.090955
v -0.258548 -0.165933 0.043337
v -0.281302 -0.134160 0.067828
v -0.256242 -0.116603 0.048329
v -0.199222 -0.094449 0.023724
v -0.201015 -0.140746 0.015363
v -0.153884 -0.134160 0.008049
s 0
f 854 1040 1453 1039
f 1040 856 1043 1453
f 1453 1043 876 1045
f 856 1047 1454 1043
f 1047 859 1049 1454
f 1454 1049 877 1050
f 1043 1454 1050 876
f 859 1053 1455 1049
f 1053 860 1055 1455
f 1455 1055 878 1056
f 1049 1455 1056 877
f 860 1057 1456 1055
f 1057 861 1058 1456
f 1456 1058 879 1060
f 1055 1456 1060 878
f 861 1062 1457 1058
f 1062 862 1063 1457
f 1457 1063 880 1068
f 1058 1457 1068 879
f 862 1071 1458 1063
f 1071 863 1072 1458
f 1458 1072 881 1074
f 1063 1458 1074 880
f 863 1076 1459 1072
f 1076 864 1078 1459
f 1459 1078 882 1082
f 1072 1459 1082 881
f 864 1086 1460 1078
f 1086 865 1090 1460
f 1460 1090 883 1091
f 1078 1460 1091 882
f 865 1093 1461 1090
f 1093 866 1095 1461
f 1461 1095 884 1097
f 1090 1461 1097 883
f 866 1098 1462 1095
f 1098 867 1101 1462
f 1462 1101 885 1103
f 1095 1462 1103 884
f 867 1108 1463 1101
f 1108 868 1112 1463
f 1463 1112 886 1114
f 1101 1463 1114 885
f 868 1118 1464 1112
f 1118 869 1122 1464
f 1464 1122 887 1124
f 1112 1464 1124 886
f 869 1127 1465 1122
f 1127 870 1131 1465
f 1465 1131 888 1134
f 1122 1465 1134 887
f 870 1135 1466 1131
f 1135 871 1137 1466
f 1466 1137 889 1140
f 1131 1466 1140 888
f 871 1142 1467 1137
f 1142 872 1147 1467
f 1467 1147 890 1150
f 1137 1467 1150 889
f 872 1151 1468 1147
f 1151 873 1154 1468
f 1468 1154 891 1158
f 1147 1468 1158 890
f 873 1161 1469 1154
f 1161 874 1164 1469
f 1469 1164 892 1169
f 1154 1469 1169 891
f 874 1173 1470 1164
f 1173 854 1039 1470
f 1164 1470 1176 892
f 875 1045 1471 1177
f 1045 876 1179 1471
f 1471 1179 894 1181
f 1177 1471 1181 893
f 876 1050 1472 1179
f 1050 877 1182 1472
f 1472 1182 895 1185
f 1179 1472 1185 894
f 877 1056 1473 1182
f 1056 878 1187 1473
f 1473 1187 896 1192
f 1182 1473 1192 895
f 878 1060 1474 1187
f 1060 879 1196 1474
f 1474 1196 897 1199
f 1187 1474 1199 896
f 879 1068 1475 1196
f 1068 880 1200 1475
f 1475 1200 898 1203
f 1196 1475 1203 897
f 880 1074 1476 1200
f 1074 881 1206 1476
f 1476 1206 899 1208
f 1200 1476 1208 898
f 1737 953 1310 1530 1741
f 916 1264 1503 1243 1491 1242
f 1660 1003 1402 1657 1658 1659
f 1728 1401 1001 1721
f 1308 952 1700 1704
f 1296 942 1281 1513
f 1734 1313 1301 946 1733
f 1124 887 1216 1477
f 1529 1325 961 952 1308
f 887 1134 1478 1216
f 1134 888 1218 1478
f 1478 1218 903 1219
f 1216 1478 1219 902
f 888 1140 1479 1218
f 1140 889 1220 1479
f 1479 1220 904 1221
f 1218 1479 1221 903
f 889 1150 1480 1220
f 1150 890 1222 1480
f 1480 1222 905 1223
f 1220 1480 1223 904
f 890 1158 1481 1222
f 1158 891 1224 1481
f 1481 1224 906 1225
f 1222 1481 1225 905
f 891 1169 1482 1224
f 1169 892 1226 1482
f 1482 1226 907 1227
f 1224 1482 1227 906
f 892 1176 1483 1226
f 1176 875 1177 1483
f 1483 1177 893 1228
f 1226 1483 1228 907
f 893 1181 1484 1229
f 1181 894 1230 1484
f 1484 1230 909 1231
f 1229 1484 1231 908
f 894 1185 1485 1230
f 1185 895 1232 1485
f 1485 1232 910 1233
f 1230 1485 1233 909
f 895 1192 1486 1232
f 1192 896 1234 1486
f 1486 1234 911 1235
f 1232 1486 1235 910
f 896 1199 1487 1234
f 1199 897 1236 1487
f 1487 1236 912 1237
f 1234 1487 1237 911
f 897 1203 1488 1236
f 1203 898 1238 1488
f 1488 1238 913 1239
f 1236 1488 1239 912
f 898 1208 1489 1238
f 885 1606 1608 1607 1609 1610 1103
f 1306 950 941 1295
f 884 1598 1597 1599 1601 1600 1602 1097
f 1310 953 1283 1515 1297
f 1219 903 1242 1491
f 1669 972 1373 1553 1671 1672 1670 1668
f 903 1221 1492 1242
f 1221 904 1244 1492
f 1492 1244 917 1245
f 1242 1492 1245 916
f 904 1223 1493 1244
f 1223 905 1246 1493
f 1493 1246 918 1247
f 1244 1493 1247 917
f 905 1225 1494 1246
f 1225 906 1248 1494
f 1494 1248 919 1249
f 1246 1494 1249 918
f 906 1227 1495 1248
f 1227 907 1250 1495
f 1495 1250 920 1251
f 1248 1495 1251 919
f 907 1228 1496 1250
f 1228 893 1229 1496
f 1496 1229 908 1252
f 1250 1496 1252 920
f 908 1231 1497 1253
f 1231 909 1254 1497
f 1497 1254 922 1255
f 1253 1497 1255 921
f 909 1233 1498 1254
f 1233 910 1256 1498
f 1498 1256 923 1257
f 1254 1498 1257 922
f 910 1235 1499 1256
f 1235 911 1258 1499
f 1499 1258 924 1259
f 1256 1499 1259 923
f 911 1237 1500 1258
f 1237 912 1260 1500
f 1500 1260 925 1261
f 1258 1500 1261 924
f 912 1239 1501 1260
f 1239 913 1262 1501
f 1501 1262 926 1263
f 1260 1501 1263 925
f 1284 943 1297 1515
f 1295 941 934 1282
f 1287 1299 944 935
f 916 1245 1504 1264
f 1245 917 1266 1504
f 1504 1266 928 1267
f 1400 1000 985 971 1346
f 917 1247 1505 1266
f 1247 918 1268 1505
f 1505 1268 929 1269
f 1266 1505 1269 928
f 918 1249 1506 1268
f 1249 919 1270 1506
f 1506 1270 930 1271
f 1268 1506 1271 929
f 919 1251 1507 1270
f 1251 920 1272 1507
f 1507 1272 931 1273
f 1270 1507 1273 930
f 920 1252 1508 1272
f 1252 908 1253 1508
f 1508 1253 921 1274
f 1272 1508 1274 931
f 921 1255 1509 1275
f 1255 922 1276 1509
f 1509 1276 933 1277
f 1275 1509 1277 932
f 922 1257 1510 1276
f 1257 923 1278 1510
f 1684 1279 1510 1278 1683
f 1276 1510 1279 933
f 923 1259 1511 1278
f 1511 1259 924 1685 1686
f 1687 934 1280 1688
f 1689 1511 1686
f 1280 1690 1688
f 1278 1511 1689 1683
f 1512 1693 1691
f 924 1261 1692 1685
f 1281 1512 1691 1694
f 1692 1261 925 1695
f 1371 1566 1397 984 1369 1552
f 1693 1512 1282 934 1687
f 1513 1281 1694 1696
f 1695 925 1263 1697
f 1696 1699 1513
f 1697 1263 926 1698
f 948 1303 1725 1709 939
f 1082 1214 899 1206 881
f 940 949 1304 1293
f 1103 1610 1611 1598 884
f 1623 1625 1720 1719 1622 1624
f 1470 1039 1453 1045 875 1176
f 1716 1540 1343 1324 1702
f 1267 928 1284 1515
f 1490 1641 1639 1640 1642 1637 901 1217
f 928 1269 1516 1284
f 1269 929 1285 1516
f 1514 1309 1738 1739 1655 1652 1651 1650 1649 1646 1645 927 1265
f 1264 1283 1514 1265 1503
f 929 1271 1517 1285
f 1271 930 1286 1517
f 1517 1286 936 1287
f 1285 1517 1287 935
f 930 1273 1518 1286
f 1273 931 1288 1518
f 1518 1288 937 1289
f 1286 1518 1289 936
f 931 1274 1519 1288
f 1274 921 1275 1519
f 1519 1275 932 1290
f 1288 1519 1290 937
f 932 1277 1520 1291
f 1707 1520 1277 933 1706
f 939 1709 1708
f 1520 1707 1710
f 1711 938 1291 1520 1710
f 1521 1714 1712
f 933 1279 1713 1706
f 1292 1521 1712 1715
f 1279 1684 1713
f 1521 1292 940 1293
f 1521 1293 939 1708 1714
f 1735 1533 1329 1752
f 1717 971 1345 1540 1716
f 902 1241 1490 1217 1477 1216
f 1657 1402 1002 1729 1732 1648 1653 1654
f 1477 1217 901 886 1124
f 1730 1626 1631 1632 1647 1731
f 1629 1723 1724
f 1503 1265 927 915 1243
f 1539 1344 970 1341 961 1325
f 901 1637 1636 1638 1635 1215
f 1299 1312 954 944
f 1214 1705 1703 914 899
f 1294 940 1292 1715 1690 1280
f 1289 937 1300 1522
f 1522 1300 946 1301
f 937 1290 1523 1300
f 1290 932 1291 1523
f 1523 1291 938 1302
f 1300 1523 1302 946
f 941 950 1305 1294
f 938 1711 1727
f 1303 947 1726 1725
f 1001 1400 1346 1722 1721
f 1644 1641 1490 1241 915 927 1645 1643
f 941 1294 1280 934
f 1304 948 939 1293
f 1301 1313 955 945
f 1372 1403 1003 1660 1666 1667 1665 1664
f 900 1718 1705 1214
f 985 1000 1399 1566 1371
f 1755 1348 972 1669 1656 1740
f 985 1371 1552 1345 971
f 1345 1552 1369 1343 1540
f 886 901 1215 1114
f 899 914 1240 1489 1208
f 1703 1701 1502 1240 914
f 1671 1553 1374 986 1662 1674 1673
f 961 1323 1528 1307 952
f 1302 1736 1733 946
f 1347 973 1348 1755 1756
f 1736 1302 938 1727
f 936 945 1299 1287
f 1726 947 1314 1533 1735
f 947 1303 1524 1314
f 1303 948 1315 1524
f 1524 1315 957 1316
f 1314 1524 1316 956
f 948 1304 1525 1315
f 1304 949 1317 1525
f 1525 1317 958 1318
f 1315 1525 1318 957
f 949 1305 1526 1317
f 1305 950 1319 1526
f 1526 1319 959 1320
f 1317 1526 1320 958
f 950 1306 1527 1319
f 1306 951 1321 1527
f 1527 1321 960 1322
f 1319 1527 1322 959
f 951 1307 1528 1321
f 1091 1613 1614 1615 1616 1617 1622 1719 1718 900 882
f 1321 1528 1323 960
f 1307 951 942 1296
f 1722 1346 971 1717
f 1626 1730 1723 1629 1630 1627 1628
f 942 1295 1282 1512 1281
f 953 1309 1514 1283
f 1662 986 1372 1664 1663 1661
f 986 1004 1403 1372
f 854 1173 1592 1047 856 1040
f 1741 1530 1326 962 1742
f 1343 1369 1551 1344 1539
f 1311 954 1327 1531
f 1744 1531 1327 1743
f 1745 962 1326 1531 1744
f 954 1312 1532 1327
f 1312 955 1328 1532
f 1746 963 1748
f 1749 1532 1328 1747
f 1743 1327 1532 1749
f 1751 1328 955 1313 1750
f 1329 1753 1752
f 1313 1734 1750
f 1329 964 1330 1754 1753
f 1754 1330 963 1746
f 1747 1328 1751
f 1298 1311 1531 1326 943
f 1533 1314 956 1331
f 1329 1533 1331 964
f 956 1316 1534 1332
f 1316 957 1333 1534
f 1534 1333 966 1334
f 1332 1534 1334 965
f 957 1318 1535 1333
f 1318 958 1335 1535
f 1535 1335 967 1336
f 1333 1535 1336 966
f 958 1320 1536 1335
f 1320 959 1337 1536
f 1536 1337 968 1338
f 1335 1536 1338 967
f 959 1322 1537 1337
f 1322 960 1339 1537
f 1537 1339 969 1340
f 1337 1537 1340 968
f 960 1323 1538 1339
f 1323 961 1341 1538
f 1538 1341 970 1342
f 1339 1538 1342 969
f 1267 1515 1283 1264 1504
f 1567 1405 1004 986 1374
f 1516 1298 943 1284
f 1700 952 1307 1296 1513 1699
f 1324 1343 1539 1325 1529
f 1738 1309 953 1737
f 942 951 1306 1295
f 1757 1541 1347 1756
f 1758 1349 1541 1757
f 1742 962 1759
f 1541 1349 974 1350
f 1347 1541 1350 973
f 1760 1542 1349 1758
f 1759 962 1745
f 1761 1351 1542 1760
f 1542 1351 975 1352
f 1349 1542 1352 974
f 1762 1543 1351 1761
f 1748 963 1353 1543 1762
f 1543 1353 976 1354
f 1351 1543 1354 975
f 963 1330 1544 1353
f 1330 964 1355 1544
f 1544 1355 977 1356
f 1353 1544 1356 976
f 964 1331 1545 1355
f 1331 956 1332 1545
f 1545 1332 965 1357
f 1355 1545 1357 977
f 965 1334 1546 1358
f 1334 966 1359 1546
f 1546 1359 979 1360
f 1358 1546 1360 978
f 966 1336 1547 1359
f 1336 967 1361 1547
f 1547 1361 980 1362
f 1359 1547 1362 979
f 967 1338 1548 1361
f 1338 968 1363 1548
f 1548 1363 981 1364
f 1361 1548 1364 980
f 968 1340 1549 1363
f 1340 969 1365 1549
f 1549 1365 982 1366
f 1363 1549 1366 981
f 969 1342 1550 1365
f 1342 970 1367 1550
f 1550 1367 983 1368
f 1365 1550 1368 982
f 970 1344 1551 1367
f 1551 1369 984 1370
f 1367 1551 1370 983
f 954 1311 1298 944
f 1522 1301 945 936 1289
f 900 1214 1082 882
f 1702 1324 1529 1308 1704
f 883 1595 1594 1596 1613 1091
f 955 1312 1299 945
f 1553 1373 987 1374
f 1326 1530 1310 1297 943
f 972 1348 1554 1373
f 1348 973 1375 1554
f 1554 1375 988 1376
f 1373 1554 1376 987
f 973 1350 1555 1375
f 1350 974 1377 1555
f 1555 1377 989 1378
f 1375 1555 1378 988
f 974 1352 1556 1377
f 1352 975 1379 1556
f 1556 1379 990 1380
f 1377 1556 1380 989
f 975 1354 1557 1379
f 1354 976 1381 1557
f 1557 1381 991 1382
f 1379 1557 1382 990
f 976 1356 1558 1381
f 1356 977 1383 1558
f 1558 1383 992 1384
f 1381 1558 1384 991
f 977 1357 1559 1383
f 1357 965 1358 1559
f 1559 1358 978 1385
f 1383 1559 1385 992
f 978 1360 1560 1386
f 1360 979 1387 1560
f 1560 1387 994 1388
f 1386 1560 1388 993
f 979 1362 1561 1387
f 1362 980 1389 1561
f 1561 1389 995 1390
f 1387 1561 1390 994
f 980 1364 1562 1389
f 1364 981 1391 1562
f 1562 1391 996 1392
f 1389 1562 1392 995
f 981 1366 1563 1391
f 1366 982 1393 1563
f 1563 1393 997 1394
f 1391 1563 1394 996
f 982 1368 1564 1393
f 1368 983 1395 1564
f 1564 1395 998 1396
f 1393 1564 1396 997
f 983 1370 1565 1395
f 1370 984 1397 1565
f 1565 1397 999 1398
f 1395 1565 1398 998
f 1240 1502 1262 913 1238 1489
f 1397 1566 1399 999
f 1097 1602 1603 1604 1605 1595 883
f 1305 949 940 1294
f 1729 1002 1401 1728
f 1491 1243 915 1241 902 1219
f 1698 926 1262 1502 1701
f 935 944 1298 1516 1285
f 1374 987 1404 1567
f 1567 1404 1005 1405
f 987 1376 1568 1404
f 1376 988 1406 1568
f 1568 1406 1006 1407
f 1404 1568 1407 1005
f 988 1378 1569 1406
f 1378 989 1408 1569
f 1569 1408 1007 1409
f 1406 1569 1409 1006
f 989 1380 1570 1408
f 1380 990 1410 1570
f 1570 1410 1008 1411
f 1408 1570 1411 1007
f 990 1382 1571 1410
f 1382 991 1412 1571
f 1571 1412 1009 1413
f 1410 1571 1413 1008
f 991 1384 1572 1412
f 1384 992 1414 1572
f 1572 1414 1010 1415
f 1412 1572 1415 1009
f 992 1385 1573 1414
f 1385 978 1386 1573
f 1573 1386 993 1416
f 1414 1573 1416 1010
f 993 1388 1574 1417
f 1388 994 1418 1574
f 1574 1418 1012 1419
f 1417 1574 1419 1011
f 994 1390 1575 1418
f 1390 995 1420 1575
f 1575 1420 1014 1421
f 1418 1575 1421 1012
f 995 1392 1576 1420
f 1392 996 1422 1576
f 1576 1422 1016 1423
f 1420 1576 1423 1014
f 996 1394 1577 1422
f 1394 997 1424 1577
f 1577 1424 1018 1425
f 1422 1577 1425 1016
f 997 1396 1578 1424
f 1396 998 1426 1578
f 1578 1426 1020 1427
f 1424 1578 1427 1018
f 998 1398 1579 1426
f 1398 999 1428 1579
f 1579 1428 1021 1429
f 1426 1579 1429 1020
f 999 1399 1580 1428
f 1399 1000 1430 1580
f 1580 1430 1024 1431
f 1428 1580 1431 1021
f 1000 1400 1581 1430
f 1400 1001 1432 1581
f 1581 1432 1026 1433
f 1430 1581 1433 1024
f 1001 1401 1582 1432
f 1401 1002 1434 1582
f 1582 1434 1027 1435
f 1432 1582 1435 1026
f 1002 1402 1583 1434
f 1402 1003 1436 1583
f 1583 1436 1028 1437
f 1434 1583 1437 1027
f 1003 1403 1584 1436
f 1403 1004 1438 1584
f 1584 1438 1029 1439
f 1436 1584 1439 1028
f 1004 1405 1585 1438
f 1405 1005 1440 1585
f 1585 1440 1030 1441
f 1438 1585 1441 1029
f 1005 1407 1586 1440
f 1407 1006 1442 1586
f 1586 1442 1031 1443
f 1440 1586 1443 1030
f 1006 1409 1587 1442
f 1409 1007 1444 1587
f 1587 1444 1032 1445
f 1442 1587 1445 1031
f 1007 1411 1588 1444
f 1411 1008 1446 1588
f 1588 1446 1033 1447
f 1444 1588 1447 1032
f 1008 1413 1589 1446
f 1413 1009 1448 1589
f 1589 1448 1034 1449
f 1446 1589 1449 1033
f 1009 1415 1590 1448
f 1415 1010 1450 1590
f 1590 1450 1036 1451
f 1448 1590 1451 1034
f 1010 1416 1591 1450
f 1416 993 1417 1591
f 1591 1417 1011 1452
f 1450 1591 1452 1036
f 874 1161 1592 1173
f 873 1151 1592 1161
f 872 1142 1592 1151
f 871 1135 1592 1142
f 870 1127 1592 1135
f 869 1118 1592 1127
f 868 1108 1592 1118
f 867 1098 1592 1108
f 866 1093 1592 1098
f 865 1086 1592 1093
f 864 1076 1592 1086
f 863 1071 1592 1076
f 862 1062 1592 1071
f 861 1057 1592 1062
f 860 1053 1592 1057
f 859 1047 1592 1053
f 1215 1635 1634 1633 1621 1620 1619 1618 1612 1606 885 1114
f 1011 1419 1593 1452
f 1012 1421 1593 1419
f 1014 1423 1593 1421
f 1016 1425 1593 1423
f 1018 1427 1593 1425
f 1020 1429 1593 1427
f 1021 1431 1593 1429
f 1024 1433 1593 1431
f 1026 1435 1593 1433
f 1027 1437 1593 1435
f 1028 1439 1593 1437
f 1029 1441 1593 1439
f 1030 1443 1593 1441
f 1031 1445 1593 1443
f 1032 1447 1593 1445
f 1033 1449 1593 1447
f 1034 1451 1593 1449
f 1036 1452 1593 1451
f 1618 1017 1015 1612
f 1619 1019 1017 1618
f 1619 1620 1022 1019
f 1621 1023 1022 1620
f 1633 1675 1025 1023 1621
f 1025 1675 1676
f 1013 1607 1608
f 1612 1015 1013 1608 1606
f 1023 1025 1048 1046
f 1035 1611 1610 1609
f 1677 1678 1051 1048 1025 1676
f 1607 1013 1037 1035 1609
f 1679 1052 1051 1678
f 1013 1015 1038 1037
f 1682 1680 1054 1052 1679 1681
f 1015 1017 1041 1038
f 1632 1631 1054 1680
f 1017 1019 1042 1041
f 1019 1022 1044 1042
f 1022 1023 1046 1044
f 1041 1070 1066 1038
f 1628 1089 1054 1631 1626
f 1042 1073 1070 1041
f 1044 1075 1073 1042
f 1046 1077 1075 1044
f 1599 1597 1059
f 1048 1079 1077 1046
f 1035 1061 1059 1597 1598 1611
f 1051 1081 1079 1048
f 1035 1037 1064 1061
f 1052 1084 1081 1051
f 1038 1066 1064 1037
f 1054 1089 1084 1052
f 1079 1123 1120 1077
f 1601 1059 1061 1099 1600
f 1081 1125 1123 1079
f 1064 1100 1099 1061
f 1084 1126 1125 1081
f 1066 1105 1100 1064
f 1089 1129 1126 1084
f 1070 1106 1105 1066
f 1627 1129 1089 1628
f 1073 1111 1106 1070
f 1075 1116 1111 1073
f 1077 1120 1116 1075
f 1601 1599 1059
f 1630 1175 1129 1627
f 1111 1155 1152 1106
f 1116 1160 1155 1111
f 1120 1163 1160 1116
f 1123 1166 1163 1120
f 1602 1600 1099 1143 1603
f 1125 1171 1166 1123
f 1100 1146 1143 1099
f 1126 1174 1171 1125
f 1105 1149 1146 1100
f 1129 1175 1174 1126
f 1106 1152 1149 1105
f 1604 1603 1143
f 1171 1210 1204 1166
f 1604 1143 1146 1186 1605
f 1171 1174 1212 1210
f 1146 1149 1190 1186
f 1763 1212 1174 1175 1764
f 1152 1193 1190 1149
f 1764 1175 1630 1629 1724
f 1155 1198 1193 1152
f 1160 1201 1198 1155
f 1163 1202 1201 1160
f 1166 1204 1202 1163
f 1614 1193 1198 1615
f 1615 1198 1201 1616
f 1616 1201 1202 1617
f 1202 1204 1624 1622 1617
f 1624 1204 1210 1623
f 1595 1605 1186 1594
f 1210 1212 1625 1623
f 1594 1186 1190 1596
f 1720 1625 1212 1763
f 1613 1596 1190 1193 1614
f 1209 1211 1654 1653
f 1211 858 1658 1657 1654
f 858 1213 1659 1658
f 1681 855 1682
f 1660 1659 1213 1666
f 1682 855 857 1647 1632 1680
f 1731 1647 857 1767
f 1766 1205 1765
f 1205 1207 1648 1732 1765
f 1207 1209 1653 1648
f 1650 1651 1065
f 1652 1067 1065 1651
f 1652 1655 1069 1067
f 1768 1069 1655 1739
f 1656 1769 1740
f 1769 1656 1669 1668 1094 1092 1770
f 1644 1643 1080
f 1668 1670 1096 1094
f 1080 1643 1645 1646 1083
f 1670 1672 1096
f 1083 1646 1649 1085
f 1650 1065 1087 1085 1649
f 1065 1067 1088 1087
f 1772 1088 1067 1069 1771
f 1092 1773 1770
f 1069 1768 1771
f 1087 1110 1109 1085
f 1087 1088 1775 1774 1110
f 1776 1113 1777
f 1775 1088 1772
f 1773 1092 1115 1113 1776
f 1102 1640 1639
f 1094 1117 1115 1092
f 1644 1080 1104 1102 1639 1641
f 1096 1119 1117 1094
f 1080 1083 1107 1104
f 1671 1673 1121 1119 1096 1672
f 1083 1085 1109 1107
f 1121 1673 1674
f 1117 1144 1141 1115
f 1102 1104 1130 1128
f 1119 1145 1144 1117
f 1104 1107 1132 1130
f 1119 1121 1148 1145
f 1109 1133 1132 1107
f 1674 1662 1661 1148 1121
f 1110 1136 1133 1109
f 1138 1779 1778
f 1780 1136 1110 1774
f 1777 1113 1139 1138 1778
f 1115 1141 1139 1113
f 1102 1128 1642 1640
f 1779 1138 1162 1781
f 1782 1136 1780
f 1139 1165 1162 1138
f 1141 1167 1165 1139
f 1128 1153 1636 1637 1642
f 1144 1168 1167 1141
f 1130 1156 1153 1128
f 1145 1170 1168 1144
f 1132 1157 1156 1130
f 1148 1172 1170 1145
f 1133 1159 1157 1132
f 1172 1148 1661 1663
f 1133 1136 1782 1783 1159
f 1153 1156 1180 1178
f 1170 1195 1194 1168
f 1157 1183 1180 1156
f 1170 1172 1197 1195
f 1159 1184 1183 1157
f 1197 1172 1663 1664 1665
f 1784 1184 1159 1783
f 1781 1162 1188 1785
f 1165 1189 1188 1162
f 1167 1191 1189 1165
f 1153 1178 1638 1636
f 1168 1194 1191 1167
f 1785 1188 1207 1205 1786
f 1189 1209 1207 1188
f 1191 1211 1209 1189
f 1178 1634 1635 1638
f 1194 858 1211 1191
f 1634 1178 1180 1677 1676 1675 1633
f 1195 1213 858 1194
f 1677 1180 1183 855 1681 1679 1678
f 1195 1197 1667 1666 1213
f 1184 857 855 1183
f 1197 1665 1667
f 1205 1766 1786
f 1767 857 1184 1784
f 1732 1729 1728 1721 1722 1717 1716 1702 1704 1700 1699 1696 1694 1691 1693 1687 1688 1690 1715 1712 1714 1708 1709 1725 1726 1735 1752 1753 1754 1746 1748 1762 1761 1760 1758 1757 1756 1755 1740 1769 1770 1773 1776 1777 1778 1779 1781 1785 1786 1766 1765
f 1739 1738 1737 1741 1742 1759 1745 1744 1743 1749 1747 1751 1750 1734 1733 1736 1727 1711 1710 1707 1706 1713 1684 1683 1689 1686 1685 1692 1695 1697 1698 1701 1703 1705 1718 1719 1720 1763 1764 1724 1723 1730 1731 1767 1784 1783 1782 1780 1774 1775 1772 1771 1768
